<?xml version="1.0" encoding="iso-8859-1"?>
<!-- Generator: Adobe Illustrator 19.0.0, SVG Export Plug-In . SVG Version: 6.00 Build 0)  -->
<svg version="1.1" id="Capa_1" xmlns="http://www.w3.org/2000/svg" xmlns:xlink="http://www.w3.org/1999/xlink" x="0px" y="0px"
	 viewBox="0 0 512 512" style="enable-background:new 0 0 512 512;" xml:space="preserve">
<polygon style="fill:#9EA7AF;" points="111.642,68.477 111.642,36.428 61.675,36.428 61.675,107.139 "/>
<g style="opacity:0.1;">
	<polygon points="87.002,87.542 87.002,36.428 61.675,36.428 61.675,107.139 	"/>
</g>
<g>
	<path style="fill:#424F59;" d="M22.146,168.587c0.53,0,1.064-0.169,1.517-0.518l151.29-117.061l151.291,117.061
		c0.452,0.35,0.986,0.518,1.518,0.518c0.745,0,1.481-0.333,1.971-0.97l11.705-15.811c0.4-0.524,1.031-1.186,0.948-1.843
		c-0.087-0.657-0.427-1.254-0.948-1.656L182.551,25.368c-2.198-1.699-4.824-2.598-7.598-2.598c-2.773,0-5.4,0.898-7.598,2.598
		L8.47,148.307c-0.523,0.402-0.864,0.999-0.947,1.656c-0.085,0.657,0.094,1.319,0.495,1.843l12.155,15.811
		C20.663,168.254,21.401,168.587,22.146,168.587z"/>
	<path style="fill:#424F59;" d="M51.271,31.428c0,2.75,2.25,5,5,5h60.775c2.75,0,5-2.25,5-5V16.435c0-2.75-2.25-5-5-5H56.271
		c-2.75,0-5,2.25-5,5V31.428z"/>
</g>
<g style="opacity:0.1;">
	<path d="M77.002,31.428V16.435c0-2.75,2.25-5,5-5H56.271c-2.75,0-5,2.25-5,5v14.993c0,2.75,2.25,5,5,5h25.731
		C79.252,36.428,77.002,34.178,77.002,31.428z"/>
</g>
<path style="fill:#E6E9ED;" d="M337.062,241.518L185.771,358.576c-0.452,0.35-0.985,0.52-1.516,0.52
	c-0.746,0-1.482-0.334-1.974-0.971l-12.154-15.81c-0.402-0.524-0.58-1.188-0.496-1.844c0.083-0.657,0.425-1.253,0.948-1.657
	l122.766-94.99V142.612L174.953,51.008L56.562,142.613V406.69c3.979-1.386,8.25-2.147,12.701-2.147
	c16.427,0,30.449,10.266,36.036,24.732c3.575-1.691,7.571-2.645,11.789-2.645c4.737,0,9.195,1.196,13.09,3.301
	c6.993-11.182,19.407-18.621,33.565-18.621c21.857,0,39.577,17.717,39.577,39.574c0,5.978-1.333,11.641-3.706,16.722h17.466
	c2.75,0,5,2.25,5,5v22.959c0,2.75-2.25,5-5,5h238.368V333.117L337.062,241.518z"/>
<g style="opacity:0.1;">
	<path d="M56.562,142.613V406.69c3.979-1.386,8.25-2.147,12.701-2.147c4.466,0,8.751,0.764,12.739,2.159V122.929L56.562,142.613z"/>
</g>
<path style="fill:#424F59;" d="M22.146,168.587c0.53,0,1.064-0.169,1.517-0.518l151.29-117.061l151.291,117.061
	c0.452,0.35,0.986,0.518,1.518,0.518c0.745,0,1.481-0.333,1.971-0.97l11.705-15.811c0.4-0.524,1.031-1.186,0.948-1.843
	c-0.087-0.657-0.427-1.254-0.948-1.656L182.551,25.368c-2.198-1.699-4.824-2.598-7.598-2.598c-2.773,0-5.4,0.898-7.598,2.598
	L8.47,148.307c-0.523,0.402-0.864,0.999-0.947,1.656c-0.085,0.657,0.094,1.319,0.495,1.843l12.155,15.811
	C20.663,168.254,21.401,168.587,22.146,168.587z"/>
<g style="opacity:0.1;">
	<path d="M29.518,151.806c-0.401-0.524-0.58-1.186-0.495-1.843c0.083-0.657,0.425-1.254,0.947-1.656L185.703,27.808l-3.152-2.439
		c-2.198-1.699-4.824-2.598-7.598-2.598c-2.773,0-5.4,0.898-7.598,2.598L8.47,148.307c-0.523,0.402-0.864,0.999-0.947,1.656
		c-0.085,0.657,0.094,1.319,0.495,1.843l12.155,15.811c0.49,0.637,1.229,0.97,1.973,0.97c0.53,0,1.064-0.169,1.517-0.518
		l11.51-8.906L29.518,151.806z"/>
</g>
<path style="fill:#FFC502;" d="M137.012,257.235c-2.75,0-5-2.25-5-5V128.301c0-2.75,2.25-5,5-5h75.871c2.75,0,5,2.25,5,5v123.934
	c0,2.75-2.25,5-5,5H137.012z"/>
<rect x="132.01" y="168.97" style="fill:#FCDB67;" width="85.87" height="42.594"/>
<g style="opacity:0.1;">
	<path d="M157.131,252.235V128.301c0-2.75,2.25-5,5-5h-25.119c-2.75,0-5,2.25-5,5v123.934c0,2.75,2.25,5,5,5h25.119
		C159.381,257.235,157.131,254.985,157.131,252.235z"/>
</g>
<path style="fill:#424F59;" d="M184.255,359.096c0.53,0,1.064-0.17,1.516-0.52l151.291-117.059l151.291,117.059
	c0.452,0.35,0.986,0.52,1.518,0.52c0.744,0,1.481-0.334,1.971-0.971l11.705-15.81c0.4-0.524,1.031-1.188,0.948-1.844
	c-0.087-0.657-0.427-1.253-0.948-1.657L344.659,215.877c-2.198-1.698-4.824-2.598-7.598-2.598c-2.772,0-5.4,0.899-7.598,2.598
	L170.579,338.815c-0.523,0.404-0.865,1-0.948,1.657c-0.084,0.656,0.094,1.319,0.496,1.844l12.154,15.81
	C182.772,358.762,183.509,359.096,184.255,359.096z"/>
<g style="opacity:0.1;">
	<path d="M189.519,342.316c-0.402-0.524-0.58-1.188-0.496-1.844c0.083-0.657,0.425-1.253,0.948-1.657L346.758,217.5l-2.099-1.623
		c-2.198-1.698-4.824-2.598-7.598-2.598c-2.772,0-5.4,0.899-7.598,2.598L170.579,338.815c-0.523,0.404-0.865,1-0.948,1.657
		c-0.084,0.656,0.094,1.319,0.496,1.844l12.154,15.81c0.491,0.637,1.228,0.971,1.974,0.971c0.53,0,1.064-0.17,1.516-0.52
		l10.188-7.883L189.519,342.316z"/>
</g>
<path style="fill:#EF5050;" d="M375.04,370.665h-75.967c-2.751,0-5.002,2.251-5.002,5.002v124.898h85.971V375.667
	C380.042,372.916,377.791,370.665,375.04,370.665z"/>
<g style="opacity:0.1;">
	<path d="M325.004,370.665h-25.931c-2.751,0-5.002,2.251-5.002,5.002v124.898h25.931V375.667
		C320.002,372.916,322.253,370.665,325.004,370.665z"/>
</g>
<path style="fill:#5DC647;" d="M163.743,411.311c-14.158,0-26.572,7.439-33.565,18.621c8.635,4.665,14.502,13.801,14.502,24.309
	c0,4.85-1.253,9.405-3.447,13.366h58.382c2.373-5.081,3.706-10.744,3.706-16.722C203.32,429.027,185.6,411.311,163.743,411.311z"/>
<path style="fill:#368C0E;" d="M141.232,467.607c2.194-3.961,3.447-8.517,3.447-13.366c0-15.248-12.353-27.609-27.592-27.609
	c-4.218,0-8.214,0.953-11.789,2.645c-5.587-14.467-19.609-24.732-36.036-24.732c-19.447,0-35.533,14.383-38.225,33.098
	c-10.274,1.994-18.035,11.034-18.035,21.896c0,2.847,0.539,5.566,1.51,8.07h126.72V467.607z"/>
<path style="opacity:0.1;enable-background:new    ;" d="M39.834,467.607c-0.971-2.504-1.51-5.224-1.51-8.07
	c0-10.861,7.762-19.901,18.035-21.896c2.078-14.446,12.141-26.304,25.565-30.965c-3.967-1.378-8.226-2.133-12.662-2.133
	c-19.447,0-35.533,14.383-38.225,33.098c-10.274,1.994-18.035,11.034-18.035,21.896c0,2.847,0.539,5.566,1.51,8.07H39.834z"/>
<path style="fill:#C6A07D;" d="M9.416,472.607c0-2.75,2.25-5,5-5H217.08c2.75,0,5,2.25,5,5v22.959c0,2.75-2.25,5-5,5H14.416
	c-2.75,0-5-2.25-5-5V472.607z"/>
<g style="opacity:0.1;">
	<path d="M35.002,495.566v-22.959c0-2.75,2.25-5,5-5H14.416c-2.75,0-5,2.25-5,5v22.959c0,2.75,2.25,5,5,5h25.586
		C37.252,500.566,35.002,498.316,35.002,495.566z"/>
</g>
<path d="M137.012,115.801c-6.893,0-12.5,5.607-12.5,12.5v123.934c0,6.893,5.607,12.5,12.5,12.5h75.871c6.893,0,12.5-5.607,12.5-12.5
	V128.301c0-6.893-5.607-12.5-12.5-12.5C212.883,115.801,137.012,115.801,137.012,115.801z M167.447,249.735h-27.936v-30.67h27.936
	V249.735z M167.447,204.065h-27.936v-27.594h27.936V204.065z M167.447,161.471h-27.936v-30.67h27.936V161.471z M210.383,249.735
	h-27.936v-30.67h27.936V249.735z M210.383,204.065h-27.936v-27.594h27.936V204.065z M210.383,161.471h-27.936v-30.67h27.936V161.471
	z"/>
<path d="M305.973,422.733v18.007c0,4.142,3.357,7.5,7.5,7.5s7.5-3.358,7.5-7.5v-18.007c0-4.143-3.357-7.5-7.5-7.5
	S305.973,418.59,305.973,422.733z"/>
<path d="M511.93,339.488c-0.349-2.633-1.694-4.978-3.794-6.605L349.244,209.942c-3.524-2.723-7.737-4.162-12.183-4.162
	s-8.66,1.44-12.188,4.166l-24.029,18.593V207c0-4.143-3.357-7.5-7.5-7.5s-7.5,3.357-7.5,7.5v33.145l-119.851,92.734
	c-2.087,1.612-3.474,4.037-3.803,6.641c-0.338,2.639,0.367,5.253,1.989,7.367l12.162,15.819c1.907,2.472,4.791,3.89,7.912,3.89
	c2.196,0,4.364-0.741,6.105-2.088L337.062,251l110.887,85.797v156.268h-60.406V479c0-4.143-3.357-7.5-7.5-7.5s-7.5,3.357-7.5,7.5
	v14.065h-70.971v-114.9h70.971v65.586c0,4.143,3.357,7.5,7.5,7.5s7.5-3.357,7.5-7.5v-68.084c0-6.894-5.608-12.502-12.502-12.502
	h-75.967c-6.894,0-12.502,5.608-12.502,12.502v117.398H229.58v-20.459c0-6.893-5.607-12.5-12.5-12.5h-7.183
	c0.599-2.983,0.923-6.064,0.923-9.222c0-25.957-21.119-47.074-47.077-47.074c-14.089,0-27.276,6.464-36.09,16.949
	c-3.336-1.056-6.885-1.629-10.565-1.629c-2.703,0-5.356,0.302-7.94,0.902c-8.167-13.99-23.41-22.99-39.885-22.99
	c-1.755,0-3.489,0.109-5.201,0.307V146.293l110.892-85.802l110.892,85.802v25.704c0,4.143,3.357,7.5,7.5,7.5s7.5-3.357,7.5-7.5
	v-14.099l20.813,16.104c1.738,1.345,3.907,2.085,6.104,2.085c3.127,0,6.014-1.422,7.918-3.9c0.027-0.035,0.054-0.071,0.081-0.106
	l11.65-15.738l0.073-0.093c0.769-0.963,2.811-3.521,2.337-7.269c-0.35-2.642-1.7-4.99-3.794-6.605l-158.89-122.94
	c-3.524-2.725-7.737-4.164-12.184-4.164c-4.449,0-8.663,1.44-12.188,4.166l-43.624,33.754V43.74
	c5.896-1.002,10.404-6.134,10.404-12.311V16.435c0-6.893-5.607-12.5-12.5-12.5H56.271c-6.893,0-12.5,5.607-12.5,12.5v14.993
	c0,6.177,4.508,11.309,10.404,12.311v59.721L3.894,142.364c-2.092,1.611-3.481,4.038-3.81,6.637
	c-0.341,2.641,0.362,5.257,1.987,7.376l12.159,15.815c1.905,2.476,4.79,3.895,7.915,3.895c2.194,0,4.36-0.739,6.107-2.087
	l20.81-16.1v243.86c-11.906,5.859-21.075,16.716-24.479,29.962c-11.31,4.36-19.081,15.345-19.081,27.814
	c0,1.376,0.098,2.728,0.279,4.054c-2.377,2.277-3.865,5.474-3.865,9.017v22.959c0,6.893,5.607,12.5,12.5,12.5h470.272
	c4.143,0,7.5-3.357,7.5-7.5c0-4.142-3.357-7.5-7.5-7.5h-21.74V348.402l20.816,16.106c1.739,1.346,3.908,2.087,6.105,2.087
	c3.127,0,6.013-1.422,7.918-3.901c0.027-0.035,0.054-0.07,0.08-0.106l11.654-15.74l0.075-0.096
	C510.365,345.789,512.403,343.231,511.93,339.488z M163.743,418.811c17.688,0,32.077,14.389,32.077,32.074
	c0,3.206-0.484,6.299-1.364,9.222h-42.782c0.326-1.908,0.506-3.866,0.506-5.866c0-10.176-4.354-19.351-11.291-25.77
	C146.821,422.45,155.025,418.811,163.743,418.811z M58.771,18.935h55.775v9.993H58.771V18.935z M104.142,43.928v20.869
	L69.175,91.853V43.928H104.142z M23.053,159.058l-6.051-7.87L171.943,31.301c0.885-0.684,1.897-1.03,3.01-1.03
	s2.125,0.347,3.008,1.029l154.726,119.72L326.78,159L179.543,45.076c-2.703-2.092-6.477-2.092-9.18,0L23.053,159.058z
	 M214.58,493.066H16.916v-17.959h69.086c4.143,0,7.5-3.357,7.5-7.5s-3.357-7.5-7.5-7.5H20.523c-0.008-0.19-0.021-0.378-0.021-0.57
	c0-7.075,5.031-13.188,11.964-14.533c3.135-0.608,5.54-3.134,5.995-6.294c2.187-15.202,15.429-26.666,30.802-26.666
	c12.765,0,24.436,8.011,29.04,19.935c0.751,1.944,2.277,3.488,4.213,4.263c1.936,0.773,4.106,0.706,5.99-0.185
	c2.699-1.276,5.586-1.924,8.582-1.924c11.079,0,20.092,9.021,20.092,20.109c0,2.044-0.32,4.01-0.892,5.866h-14.286
	c-4.143,0-7.5,3.357-7.5,7.5s3.357,7.5,7.5,7.5h92.578L214.58,493.066L214.58,493.066z M488.889,349.508L341.651,235.586
	c-2.703-2.092-6.477-2.092-9.18,0l-147.31,113.98l-6.05-7.869L334.05,221.812c0.887-0.685,1.899-1.032,3.012-1.032
	c1.111,0,2.125,0.348,3.008,1.029l154.727,119.72L488.889,349.508z"/>
<g>
</g>
<g>
</g>
<g>
</g>
<g>
</g>
<g>
</g>
<g>
</g>
<g>
</g>
<g>
</g>
<g>
</g>
<g>
</g>
<g>
</g>
<g>
</g>
<g>
</g>
<g>
</g>
<g>
</g>
</svg>
