<svg id="Layer_1" enable-background="new 0 0 100 100" viewBox="0 0 100 100" xmlns="http://www.w3.org/2000/svg"><path clip-rule="evenodd" d="m88.0002441 21.5007324h-56.9985351c-2.5199547 0-4.9398155.9999752-6.719799 2.7798977l-18.9995113 18.9995098c-3.7098658 3.7099266-3.7098658 9.7297935 0 13.4396591l18.9995117 18.9995079c1.7799835 1.7799835 4.1998444 2.7799606 6.719799 2.7799606h56.9985352c2.5199585 0 4.9398117-.9999771 6.7197952-2.7799606 1.7799831-1.7799224 2.7799602-4.1999053 2.7799602-6.7197952v-37.9990234c0-5.2498646-4.2498932-9.4997559-9.4997559-9.4997559zm-11.3496856 37.5090447c2.0198441 2.0199089 2.0198441 5.2998543 0 7.3098106-.9700623.9699478-2.2699585 1.5099106-3.6499252 1.5099106-1.3799744 0-2.679863-.5399628-3.6499329-1.5099106l-9.0196686-9.0097771-9.0097771 9.0097771c-.9700661.9699478-2.2699623 1.5099106-3.6500511 1.5099106-1.3798485 0-2.679863-.5399628-3.6598206-1.5099106-.969944-.9800186-1.5099716-2.2699585-1.5099716-3.649929s.5400276-2.679924 1.5099716-3.6598816l9.0197907-9.0097771-9.0197906-9.0097771c-.969944-.9799576-1.5099716-2.2799721-1.5099716-3.6599426 0-1.3799057.5400276-2.6699142 1.5099716-3.649868.9799576-.970005 2.2799721-1.5099716 3.6598206-1.5099716 1.3800888 0 2.679985.5399666 3.6500511 1.5099716l9.0097771 9.0097771 9.0196686-9.0097771c.9700699-.970005 2.2699585-1.5099716 3.6499329-1.5099716 1.3799667 0 2.679863.5399666 3.6499252 1.5099716 2.0198441 2.0099602 2.0198441 5.2898407 0 7.3098106l-9.0097734 9.0097771z" fill-rule="evenodd"/></svg>