<svg version="1.1" id="Capa_1" xmlns="http://www.w3.org/2000/svg" xmlns:xlink="http://www.w3.org/1999/xlink" x="0px" y="0px" viewBox="0 0 512 512" style="enable-background:new 0 0 512 512;" xml:space="preserve">
<g>
	<g>
		<rect x="152.167" y="314.382" style="fill:#CBC4CC;" width="207.667" height="43"/>
		<path style="fill:#B5ADB6;" d="M328.667,314.382V327c0,5.523-4.477,10-10,10h-166.5v20.382h207.667v-43H328.667z"/>
		<path style="fill:#26A6FE;" d="M82.754,449.382v42c0,2.761,2.239,5,5,5H130.5c2.761,0,5-2.239,5-5v-42H82.754z"/>
		<path style="fill:#0593FC;" d="M114.746,449.382V471c0,2.761-2.239,5-5,5H82.754v15.382c0,2.761,2.239,5,5,5H130.5&#10;&#9;&#9;&#9;c2.761,0,5-2.239,5-5v-42H114.746z"/>
		<circle style="fill:#FFCEBF;" cx="80.333" cy="201.294" r="44.912"/>
		<path style="fill:#FFB09E;" d="M97.133,159.642c2.045,5.136,3.181,10.733,3.181,16.599c0,24.804-20.108,44.912-44.912,44.912&#10;&#9;&#9;&#9;c-5.942,0-11.609-1.165-16.8-3.26c6.603,16.585,22.792,28.313,41.731,28.313c24.804,0,44.912-20.108,44.912-44.912&#10;&#9;&#9;&#9;C125.245,182.431,113.612,166.295,97.133,159.642z"/>
		<path style="fill:#FD8087;" d="M118.167,243.443H42.5c-19.33,0-35,15.67-35,35v33.939l1,0.709v-0.709c0-4.962,4.038-9,9-9h91&#10;&#9;&#9;&#9;c4.962,0,9,4.038,9,9v78h35.667V278.443C153.167,259.113,137.497,243.443,118.167,243.443z"/>
		<path style="fill:#FE646F;" d="M132.667,246.589v113.35c0,5.523-4.477,10-10,10H117.5v20.443h35.667V278.443&#10;&#9;&#9;&#9;C153.167,264.287,144.758,252.103,132.667,246.589z"/>
		<path style="fill:#26A6FE;" d="M196.167,389.382H117.5v31h61c4.962,0,9,4.038,9,9v11c0,4.962-4.038,9-9,9h-10v42&#10;&#9;&#9;&#9;c0,2.761,2.239,5,5,5h42.667c2.761,0,5-2.239,5-5v-77C221.167,400.575,209.974,389.382,196.167,389.382z"/>
		<path style="fill:#0593FC;" d="M200.667,389.806V471c0,2.761-2.239,5-5,5H168.5v15.382c0,2.761,2.239,5,5,5h42.667&#10;&#9;&#9;&#9;c2.761,0,5-2.239,5-5v-77C221.167,402.113,212.323,391.928,200.667,389.806z"/>
		<path style="fill:#B5ADB6;" d="M118.5,419.382H7.5v-107c0-5.523,4.477-10,10-10h91c5.523,0,10,4.477,10,10V419.382z"/>
		<path style="fill:#A79BA7;" d="M108.5,302.382H88v117h30.5v-107C118.5,306.859,114.023,302.382,108.5,302.382z"/>
		<path style="fill:#CBC4CC;" d="M7.5,419.382v21c0,5.523,4.477,10,10,10h161c5.523,0,10-4.477,10-10v-11c0-5.523-4.477-10-10-10&#10;&#9;&#9;&#9;H7.5z"/>
		<path style="fill:#B5ADB6;" d="M178.5,419.382H158v2.557c0,5.523-4.477,10-10,10H7.5v8.443c0,5.523,4.477,10,10,10h161&#10;&#9;&#9;&#9;c5.523,0,10-4.477,10-10v-11C188.5,423.859,184.023,419.382,178.5,419.382z"/>
		<path style="fill:#26A6FE;" d="M376.5,449.382v42c0,2.761,2.239,5,5,5h42.746c2.761,0,5-2.239,5-5v-42H376.5z"/>
		<path style="fill:#0593FC;" d="M408.746,449.382V471c0,2.761-2.239,5-5,5H376.5v15.382c0,2.761,2.239,5,5,5h42.746&#10;&#9;&#9;&#9;c2.761,0,5-2.239,5-5v-42H408.746z"/>
		<circle style="fill:#FFCEBF;" cx="431.667" cy="201.294" r="44.912"/>
		<path style="fill:#FFB09E;" d="M448.466,159.642c2.045,5.136,3.181,10.733,3.181,16.599c0,24.804-20.108,44.912-44.912,44.912&#10;&#9;&#9;&#9;c-5.942,0-11.609-1.165-16.8-3.26c6.603,16.585,22.792,28.313,41.731,28.313c24.804,0,44.912-20.108,44.912-44.912&#10;&#9;&#9;&#9;C476.579,182.431,464.945,166.295,448.466,159.642z"/>
		<path style="fill:#FFE177;" d="M469.5,243.443h-75.667c-19.33,0-35,15.67-35,35v111.939H394.5v-78c0-4.962,4.037-9,9-9h91&#10;&#9;&#9;&#9;c4.963,0,9,4.038,9,9v0.709l1-0.709v-33.939C504.5,259.113,488.83,243.443,469.5,243.443z"/>
		<path style="fill:#FFD15B;" d="M474,243.74v59.641h20.5c4.963,0,9,4.038,9,9v0.709l1-0.709v-33.939&#10;&#9;&#9;&#9;C504.5,260.639,491.203,245.95,474,243.74z"/>
		<path style="fill:#26A6FE;" d="M333.5,449.382c-4.963,0-9-4.038-9-9v-11c0-4.962,4.037-9,9-9h61v-31h-78.667&#10;&#9;&#9;&#9;c-13.807,0-25,11.193-25,25v77c0,2.761,2.239,5,5,5H338.5c2.761,0,5-2.239,5-5v-42H333.5z"/>
		<path style="fill:#0593FC;" d="M333.5,450.382c-4.436,0-8.191-2.891-9.5-6.889V471c0,2.761-2.239,5-5,5h-28.167v15.382&#10;&#9;&#9;&#9;c0,2.761,2.239,5,5,5H338.5c2.761,0,5-2.239,5-5v-41H333.5z"/>
		<path style="fill:#B5ADB6;" d="M393.5,419.382h111v-107c0-5.523-4.477-10-10-10h-91c-5.523,0-10,4.477-10,10V419.382z"/>
		<path style="fill:#A79BA7;" d="M494.5,302.382H474v117h30.5v-107C504.5,306.859,500.023,302.382,494.5,302.382z"/>
		<path style="fill:#CBC4CC;" d="M504.5,419.382v21c0,5.523-4.477,10-10,10h-161c-5.523,0-10-4.477-10-10v-11&#10;&#9;&#9;&#9;c0-5.523,4.477-10,10-10H504.5z"/>
		<path style="fill:#B5ADB6;" d="M474,419.382v2.557c0,5.523-4.477,10-10,10H323.5v8.443c0,5.523,4.477,10,10,10h161&#10;&#9;&#9;&#9;c5.523,0,10-4.477,10-10v-21H474z"/>
		<g>
			<path style="fill:#D8ECFE;" d="M181,227.618v87.763h150v-87.764c0-19.33-15.67-35-35-35l-80,0&#10;&#9;&#9;&#9;&#9;C196.67,192.618,181,208.288,181,227.618z"/>
			<path style="fill:#C4E2FF;" d="M303,193.32v82.444c0,5.523-4.477,10-10,10H181v29.618h150v-87.764&#10;&#9;&#9;&#9;&#9;C331,210.686,318.975,196.563,303,193.32z"/>
			<g>
				<polygon style="fill:#685E68;" points="233.852,192.618 247.789,229.297 248.607,230.297 263.322,230.297 264.157,229.297 &#10;&#9;&#9;&#9;&#9;&#9;277.825,192.618 &#9;&#9;&#9;&#9;"/>
				<polygon style="fill:#554E56;" points="277.464,315.382 264.157,229.297 247.789,229.297 234.156,315.382 &#9;&#9;&#9;&#9;"/>
				<polygon style="fill:#433F43;" points="238.847,285.764 234.156,315.382 277.464,315.382 272.886,285.764 &#9;&#9;&#9;&#9;"/>
				<circle style="fill:#C96E59;" cx="256" cy="154.032" r="44.912"/>
				<path style="fill:#BB5D4C;" d="M272.8,112.381c2.045,5.136,3.181,10.733,3.181,16.599c0,24.804-20.108,44.912-44.912,44.912&#10;&#9;&#9;&#9;&#9;&#9;c-5.942,0-11.609-1.165-16.8-3.26c6.603,16.585,22.792,28.313,41.731,28.313c24.804,0,44.912-20.108,44.912-44.912&#10;&#9;&#9;&#9;&#9;&#9;C300.912,135.17,289.279,119.034,272.8,112.381z"/>
			</g>
		</g>
		<g>
			<path style="fill:#FFE177;" d="M167.452,15.618H82.548c-13.807,0-25,11.193-25,25v53.461c0,13.807,11.193,25,25,25h42.57&#10;&#9;&#9;&#9;&#9;c1.657,0,3,1.343,3,3v10.297c0,2.673,3.231,4.011,5.121,2.121l14.539-14.539c0.563-0.563,1.326-0.879,2.121-0.879h17.552&#10;&#9;&#9;&#9;&#9;c13.807,0,25-11.193,25-25V40.618C192.452,26.811,181.259,15.618,167.452,15.618z"/>
			<path style="fill:#FFD15B;" d="M167.452,15.618h-6.708v61.915c0,8.284-6.716,15-15,15H57.548v1.545c0,13.807,11.193,25,25,25&#10;&#9;&#9;&#9;&#9;h42.57c1.657,0,3,1.343,3,3v10.297c0,2.673,3.231,4.011,5.121,2.121l14.539-14.539c0.563-0.563,1.326-0.879,2.121-0.879h17.552&#10;&#9;&#9;&#9;&#9;c13.807,0,25-11.193,25-25V40.618C192.452,26.811,181.259,15.618,167.452,15.618z"/>
			<g>
				<path style="fill:#05E39C;" d="M344.548,15.618h84.905c13.807,0,25,11.193,25,25v53.461c0,13.807-11.193,25-25,25h-42.57&#10;&#9;&#9;&#9;&#9;&#9;c-1.657,0-3,1.343-3,3v10.297c0,2.673-3.231,4.011-5.121,2.121l-14.539-14.539c-0.563-0.563-1.326-0.879-2.121-0.879h-17.552&#10;&#9;&#9;&#9;&#9;&#9;c-13.807,0-25-11.193-25-25V40.618C319.548,26.811,330.741,15.618,344.548,15.618z"/>
				<path style="fill:#0ED290;" d="M429.452,15.618h-5v61.915c0,8.284-6.716,15-15,15h-89.905v1.545c0,13.807,11.193,25,25,25H362.1&#10;&#9;&#9;&#9;&#9;&#9;c0.796,0,1.559,0.316,2.121,0.879l14.539,14.539c1.89,1.89,5.121,0.551,5.121-2.121v-10.297c0-1.657,1.343-3,3-3h42.57&#10;&#9;&#9;&#9;&#9;&#9;c13.807,0,25-11.193,25-25V40.618C454.452,26.811,443.259,15.618,429.452,15.618z"/>
			</g>
		</g>
	</g>
	<g>
		
			<rect x="153.167" y="314.382" style="fill:none;stroke:#000000;stroke-width:15;stroke-linecap:round;stroke-linejoin:round;stroke-miterlimit:10;" width="205.667" height="43"/>
		<path style="fill:none;stroke:#000000;stroke-width:15;stroke-linecap:round;stroke-linejoin:round;stroke-miterlimit:10;" d="&#10;&#9;&#9;&#9;M82.754,450.382v41c0,2.761,2.239,5,5,5H130.5c2.761,0,5-2.239,5-5v-41H82.754z"/>
		<path style="fill:none;stroke:#000000;stroke-width:15;stroke-linecap:round;stroke-linejoin:round;stroke-miterlimit:10;" d="&#10;&#9;&#9;&#9;M64.794,243.443h31.078c17.146-6.323,29.373-22.807,29.373-42.149c0-24.804-20.108-44.912-44.912-44.912&#10;&#9;&#9;&#9;s-44.912,20.108-44.912,44.912C35.421,220.635,47.649,237.119,64.794,243.443z"/>
		<path style="fill:none;stroke:#000000;stroke-width:15;stroke-linecap:round;stroke-linejoin:round;stroke-miterlimit:10;" d="&#10;&#9;&#9;&#9;M153.167,389.382V278.443c0-19.33-15.67-35-35-35H42.5c-19.33,0-35,15.67-35,35v33.939"/>
		<path style="fill:none;stroke:#000000;stroke-width:15;stroke-linecap:round;stroke-linejoin:round;stroke-miterlimit:10;" d="&#10;&#9;&#9;&#9;M168.5,450.382v41c0,2.761,2.239,5,5,5h42.667c2.761,0,5-2.239,5-5v-77c0-13.807-11.193-25-25-25H118.5"/>
		<path style="fill:none;stroke:#000000;stroke-width:15;stroke-linecap:round;stroke-linejoin:round;stroke-miterlimit:10;" d="&#10;&#9;&#9;&#9;M7.5,419.382v-107c0-5.523,4.477-10,10-10h91c5.523,0,10,4.477,10,10v107"/>
		<path style="fill:none;stroke:#000000;stroke-width:15;stroke-linecap:round;stroke-linejoin:round;stroke-miterlimit:10;" d="&#10;&#9;&#9;&#9;M376.5,450.382v41c0,2.761,2.239,5,5,5h42.746c2.761,0,5-2.239,5-5v-41H376.5z"/>
		<path style="fill:none;stroke:#000000;stroke-width:15;stroke-linecap:round;stroke-linejoin:round;stroke-miterlimit:10;" d="&#10;&#9;&#9;&#9;M416.128,243.443h31.078c17.146-6.323,29.373-22.807,29.373-42.149c0-24.804-20.108-44.912-44.912-44.912&#10;&#9;&#9;&#9;c-24.804,0-44.912,20.108-44.912,44.912C386.755,220.635,398.982,237.119,416.128,243.443z"/>
		<path style="fill:none;stroke:#000000;stroke-width:15;stroke-linecap:round;stroke-linejoin:round;stroke-miterlimit:10;" d="&#10;&#9;&#9;&#9;M504.5,312.382v-33.939c0-19.33-15.67-35-35-35h-75.667c-19.33,0-35,15.67-35,35v110.939"/>
		<path style="fill:none;stroke:#000000;stroke-width:15;stroke-linecap:round;stroke-linejoin:round;stroke-miterlimit:10;" d="&#10;&#9;&#9;&#9;M393.5,389.382h-77.667c-13.807,0-25,11.193-25,25v77c0,2.761,2.239,5,5,5H338.5c2.761,0,5-2.239,5-5v-41"/>
		<path style="fill:none;stroke:#000000;stroke-width:15;stroke-linecap:round;stroke-linejoin:round;stroke-miterlimit:10;" d="&#10;&#9;&#9;&#9;M233.017,192.618H216c-19.33,0-35,15.67-35,35v86.763h150v-86.763c0-19.33-15.67-35-35-35h-17.017"/>
		
			<polyline style="fill:none;stroke:#000000;stroke-width:15;stroke-linecap:round;stroke-linejoin:round;stroke-miterlimit:10;" points="&#10;&#9;&#9;&#9;234.086,193.233 247.789,229.297 264.157,229.297 277.509,193.466 &#9;&#9;"/>
		
			<polygon style="fill:none;stroke:#000000;stroke-width:15;stroke-linecap:round;stroke-linejoin:round;stroke-miterlimit:10;" points="&#10;&#9;&#9;&#9;277.31,314.382 264.157,229.297 247.789,229.297 234.314,314.382 &#9;&#9;"/>
		
			<circle style="fill:none;stroke:#000000;stroke-width:15;stroke-linecap:round;stroke-linejoin:round;stroke-miterlimit:10;" cx="256" cy="154.032" r="44.912"/>
		<path style="fill:none;stroke:#000000;stroke-width:15;stroke-linecap:round;stroke-linejoin:round;stroke-miterlimit:10;" d="&#10;&#9;&#9;&#9;M30,419.382H7.5v21c0,5.523,4.477,10,10,10h161c5.523,0,10-4.477,10-10v-11c0-5.523-4.477-10-10-10H65"/>
		<path style="fill:none;stroke:#000000;stroke-width:15;stroke-linecap:round;stroke-linejoin:round;stroke-miterlimit:10;" d="&#10;&#9;&#9;&#9;M393.5,369v50.382h111v-107c0-5.523-4.477-10-10-10h-91c-5.523,0-10,4.477-10,10V334"/>
		<path style="fill:none;stroke:#000000;stroke-width:15;stroke-linecap:round;stroke-linejoin:round;stroke-miterlimit:10;" d="&#10;&#9;&#9;&#9;M504.5,419.382v21c0,5.523-4.477,10-10,10h-161c-5.523,0-10-4.477-10-10v-11c0-5.523,4.477-10,10-10H504.5z"/>
		
			<line style="fill:none;stroke:#000000;stroke-width:15;stroke-linecap:round;stroke-linejoin:round;stroke-miterlimit:10;" x1="92.5" y1="49.849" x2="157.5" y2="49.849"/>
		
			<line style="fill:none;stroke:#000000;stroke-width:15;stroke-linecap:round;stroke-linejoin:round;stroke-miterlimit:10;" x1="92.5" y1="84.849" x2="157.5" y2="84.849"/>
		<path style="fill:none;stroke:#000000;stroke-width:15;stroke-linecap:round;stroke-linejoin:round;stroke-miterlimit:10;" d="&#10;&#9;&#9;&#9;M167.452,15.618H82.548c-13.807,0-25,11.193-25,25v53.461c0,13.807,11.193,25,25,25h42.57c1.657,0,3,1.343,3,3v10.297&#10;&#9;&#9;&#9;c0,2.673,3.231,4.011,5.121,2.121l14.539-14.539c0.563-0.563,1.326-0.879,2.121-0.879h17.552c13.807,0,25-11.193,25-25V40.618&#10;&#9;&#9;&#9;C192.452,26.811,181.259,15.618,167.452,15.618z"/>
		
			<line style="fill:none;stroke:#000000;stroke-width:15;stroke-linecap:round;stroke-linejoin:round;stroke-miterlimit:10;" x1="419.5" y1="49.849" x2="354.5" y2="49.849"/>
		
			<line style="fill:none;stroke:#000000;stroke-width:15;stroke-linecap:round;stroke-linejoin:round;stroke-miterlimit:10;" x1="419.5" y1="84.849" x2="354.5" y2="84.849"/>
		<path style="fill:none;stroke:#000000;stroke-width:15;stroke-linecap:round;stroke-linejoin:round;stroke-miterlimit:10;" d="&#10;&#9;&#9;&#9;M319.548,84.849v9.23c0,13.807,11.193,25,25,25H362.1c0.796,0,1.559,0.316,2.121,0.879l14.539,14.539&#10;&#9;&#9;&#9;c1.89,1.89,5.121,0.551,5.121-2.121v-10.297c0-1.657,1.343-3,3-3h42.57c13.807,0,25-11.193,25-25V40.618c0-13.807-11.193-25-25-25&#10;&#9;&#9;&#9;h-84.905c-13.807,0-25,11.193-25,25v9.23"/>
	</g>
</g>
<g>
</g>
<g>
</g>
<g>
</g>
<g>
</g>
<g>
</g>
<g>
</g>
<g>
</g>
<g>
</g>
<g>
</g>
<g>
</g>
<g>
</g>
<g>
</g>
<g>
</g>
<g>
</g>
<g>
</g>
</svg>