<svg id="Capa_1" enable-background="new 0 0 512 512" height="512" viewBox="0 0 512 512" width="512" xmlns="http://www.w3.org/2000/svg"><g><g><path d="m474.714 396.163h-437.427c-16.569 0-30-13.431-30-30v-274.291c0-16.569 13.431-30 30-30h437.427c16.569 0 30 13.431 30 30v274.291c0 16.568-13.432 30-30 30z" fill="#e28086"/></g><g><path d="m474.714 61.872h-2.257v290.717c0 6.25-5.067 11.317-11.317 11.317h-453.853v2.257c0 16.569 13.431 30 30 30h437.427c16.569 0 30-13.431 30-30v-274.291c0-16.569-13.432-30-30-30z" fill="#dd636e"/></g><g><path d="m346.234 475.1-5.4-5.019c-12.734-11.834-19.969-28.434-19.969-45.819v-54.332h-129.729v54.332c0 17.384-7.235 33.984-19.969 45.819l-5.4 5.018h180.467z" fill="#d5c6e4"/></g><g><path d="m286.655 369.931v54.578c0 19.029 7.615 37.221 21.064 50.591h38.516l-5.4-5.018c-12.734-11.834-19.969-28.434-19.969-45.819v-54.332z" fill="#beb9dd"/></g><g><path d="m7.287 331.677v34.486c0 16.569 13.431 30 30 30h437.427c16.569 0 30-13.431 30-30v-34.486z" fill="#efecef"/></g><g><path d="m472.457 331.677v20.912c0 6.25-5.067 11.317-11.317 11.317h-453.853v2.257c0 16.569 13.431 30 30 30h437.427c16.569 0 30-13.431 30-30v-34.486z" fill="#dddaec"/></g><g><path d="m138.51 104.144-95.271 165.014c-6.543 11.333 1.636 25.5 14.722 25.5h190.541c13.087 0 21.266-14.167 14.722-25.5l-95.271-165.014c-6.542-11.333-22.9-11.333-29.443 0z" fill="#f4dd45"/></g><path d="m263.225 269.158-95.271-165.013c-6.543-11.333-22.902-11.333-29.445 0l-11.923 20.651 98.07 169.862h23.846c13.088 0 21.267-14.167 14.723-25.5z" fill="#ecc32e"/><g><path d="m456.484 294.338h-128.539c-8.284 0-15-6.716-15-15v-133.557h158.539v133.557c0 8.284-6.715 15-15 15z" fill="#407093"/></g><g><path d="m447.503 145.781v110.003c0 8.048-6.525 14.573-14.573 14.573h-119.985v8.981c0 8.284 6.716 15 15 15h128.539c8.284 0 15-6.716 15-15v-133.557z" fill="#365e7d"/></g><g><path d="m471.484 190.64h-158.539v-49.955c0-8.284 6.716-15 15-15h128.539c8.284 0 15 6.716 15 15z" fill="#efecef"/></g><g><path d="m456.484 125.685h-8.981v64.955h23.981v-49.955c0-8.284-6.715-15-15-15z" fill="#dddaec"/></g><g><path d="m399.539 205.553h-128.539c-8.284 0-15-6.716-15-15v-133.557h158.539v133.557c0 8.284-6.715 15-15 15z" fill="#407093"/></g><g><path d="m390.558 56.996v110.003c0 8.048-6.525 14.573-14.573 14.573h-119.985v8.981c0 8.284 6.716 15 15 15h128.539c8.284 0 15-6.716 15-15v-133.557z" fill="#365e7d"/></g><g><path d="m414.539 101.855h-158.539v-49.955c0-8.284 6.716-15 15-15h128.539c8.284 0 15 6.716 15 15z" fill="#efecef"/></g><g><path d="m399.539 36.9h-8.981v64.955h23.981v-49.955c0-8.284-6.715-15-15-15z" fill="#dddaec"/></g><g><path d="m475.567 54.586h-53.742v-3.113c0-12.053-9.806-21.86-21.86-21.86h-129.392c-12.053 0-21.86 9.806-21.86 21.86v3.113h-144.922c-4.024 0-7.287 3.262-7.287 7.287s3.262 7.287 7.287 7.287h144.922v121.82c0 12.053 9.806 21.86 21.86 21.86h35.085v66.926c0 12.053 9.806 21.86 21.86 21.86h129.393c12.053 0 21.86-9.806 21.86-21.86v-139.507c0-12.053-9.806-21.86-21.86-21.86h-35.085v-49.24h53.742c12.053 0 21.86 9.806 21.86 21.86v233.371h-482.855v-233.371c0-12.053 9.806-21.86 21.86-21.86h33.082c4.024 0 7.287-3.262 7.287-7.287s-3.262-7.287-7.287-7.287h-33.082c-20.09.001-36.433 16.344-36.433 36.434v275.998c0 20.089 16.343 36.433 36.433 36.433h147.417v20.813c0 15.306-6.431 30.062-17.643 40.482l-3.302 3.069h-9.671c-4.024 0-7.287 3.262-7.287 7.287s3.262 7.287 7.287 7.287h205.535c4.025 0 7.287-3.262 7.287-7.287s-3.262-7.287-7.287-7.287h-9.671l-3.303-3.07c-11.213-10.419-17.643-25.175-17.643-40.481v-20.813h62.101c4.025 0 7.287-3.262 7.287-7.287s-3.262-7.287-7.287-7.287h-353.82c-12.054 0-21.86-9.806-21.86-21.86v-28.053h482.854v28.053c0 12.053-9.806 21.86-21.86 21.86h-52.139c-4.025 0-7.287 3.262-7.287 7.287s3.262 7.287 7.287 7.287h52.139c20.089 0 36.433-16.343 36.433-36.433v-275.998c0-20.09-16.343-36.433-36.433-36.433zm-212.28-3.113c0-4.018 3.268-7.287 7.287-7.287h129.393c4.018 0 7.287 3.269 7.287 7.287v43.096h-143.967zm0 139.507v-81.838h143.966v81.838c0 4.018-3.269 7.287-7.287 7.287h-129.393c-4.018-.001-7.286-3.269-7.286-7.287zm193.624 96.072h-129.393c-4.018 0-7.287-3.268-7.287-7.287v-66.926h79.734c9.625 0 17.811-6.256 20.721-14.913h43.51v81.839c.001 4.018-3.267 7.287-7.285 7.287zm0-154.08c4.018 0 7.287 3.268 7.287 7.287v43.095h-42.372v-50.381h35.085zm-128.069 334.842h-145.684c9.787-12.29 15.264-27.683 15.264-43.551v-20.813h115.156v20.813c0 15.868 5.477 31.261 15.264 43.551z"/><circle cx="255.926" cy="363.677" r="11.476"/><path d="m226.78 206.034c3.485-2.012 4.679-6.469 2.667-9.954l-55.601-96.305c-4.303-7.453-12.009-11.901-20.613-11.902-8.605 0-16.312 4.45-20.614 11.902l-96.109 166.466c-4.303 7.452-4.303 16.35 0 23.803 4.303 7.452 12.009 11.901 20.614 11.901h192.217c8.606 0 16.312-4.45 20.614-11.902 4.302-7.453 4.302-16.35-.001-23.802l-24.851-43.045c-2.012-3.486-6.468-4.678-9.954-2.667-3.485 2.012-4.679 6.469-2.667 9.954l24.851 43.045c2.405 4.165.802 7.842 0 9.23-.801 1.387-3.183 4.615-7.993 4.615h-192.216c-4.81 0-7.192-3.228-7.993-4.615-.801-1.388-2.405-5.065 0-9.23l96.109-166.465c2.405-4.166 6.391-4.616 7.993-4.616 1.602.001 5.588.451 7.993 4.616l55.602 96.305c2.011 3.484 6.467 4.677 9.952 2.666z"/><path d="m153.232 269.944c4.441 0 8.041-3.6 8.041-8.041s-3.6-8.041-8.041-8.041-8.041 3.6-8.041 8.041c0 4.442 3.6 8.041 8.041 8.041z"/><path d="m153.306 238.47c4.024 0 7.287-3.262 7.287-7.287v-82.52c0-4.025-3.262-7.287-7.287-7.287-4.024 0-7.287 3.262-7.287 7.287v82.52c.001 4.025 3.263 7.287 7.287 7.287z"/><path d="m397.651 242.192h-50.645c-4.025 0-7.287 3.262-7.287 7.287s3.262 7.287 7.287 7.287h50.645c4.025 0 7.287-3.262 7.287-7.287s-3.262-7.287-7.287-7.287z"/><path d="m438.163 242.192h-11.821c-4.025 0-7.287 3.262-7.287 7.287s3.262 7.287 7.287 7.287h11.821c4.025 0 7.287-3.262 7.287-7.287s-3.262-7.287-7.287-7.287z"/><path d="m317.219 85.96c2.847 2.845 7.459 2.845 10.305 0l5.781-5.781 5.781 5.781c2.847 2.845 7.459 2.845 10.306 0 2.845-2.846 2.845-7.459 0-10.306l-5.781-5.781 5.781-5.781c2.845-2.846 2.845-7.459 0-10.306-2.846-2.844-7.459-2.844-10.306 0l-5.781 5.781-5.781-5.781c-2.846-2.844-7.459-2.844-10.305 0-2.845 2.846-2.845 7.459 0 10.306l5.781 5.781-5.781 5.781c-2.845 2.846-2.845 7.459 0 10.306z"/><path d="m289.065 138.561h46.232c4.025 0 7.287-3.262 7.287-7.287s-3.262-7.287-7.287-7.287h-46.232c-4.025 0-7.287 3.262-7.287 7.287s3.262 7.287 7.287 7.287z"/><path d="m320.232 160.694c0-4.025-3.262-7.287-7.287-7.287h-22.884c-4.025 0-7.287 3.262-7.287 7.287s3.262 7.287 7.287 7.287h22.884c4.025 0 7.287-3.262 7.287-7.287z"/><path d="m334.35 160.694c0 4.025 3.262 7.287 7.287 7.287h39.582c4.025 0 7.286-3.262 7.286-7.287s-3.262-7.287-7.286-7.287h-39.582c-4.025.001-7.287 3.262-7.287 7.287z"/></g></g></svg>