<svg height="512" viewBox="0 0 152 152" width="512" xmlns="http://www.w3.org/2000/svg" xmlns:xlink="http://www.w3.org/1999/xlink"><linearGradient id="linear-gradient" gradientUnits="userSpaceOnUse" x1="49.47" x2="123.72" y1="55.62" y2="129.87"><stop offset="0" stop-color="#073d73"/><stop offset=".23" stop-color="#073d73" stop-opacity=".8"/><stop offset=".71" stop-color="#073d73" stop-opacity=".29"/><stop offset=".97" stop-color="#073d73" stop-opacity="0"/></linearGradient><g id="Layer_2" data-name="Layer 2"><g id="_23.imo" data-name="23.imo"><circle id="background" cx="76" cy="76" fill="#205bb3" r="76"/><path id="shadow" d="m149.35 95.93a76 76 0 0 1 -63.68 55.46l-43.39-43.39 5.79-13.15-5.78-18.85c10.28-53.57 60.42-26.71 60.42-26.71z" fill="url(#linear-gradient)"/><g id="icon" fill="#fff"><path d="m76.73 38.73a37.28 37.28 0 0 0 -32.63 55.27c0 .09-1.72 6.2-6.07 8.64 0 0-.68 3.42 4.25 5.34 0 0 4.63 2.34 13.12-1.43a37.27 37.27 0 1 0 21.33-67.82zm0 68.17a30.75 30.75 0 0 1 -20.32-7.62c-7.82 4.15-9.34 3-9.34 3 2.19-2.19 4.11-8.86 4.11-8.86a30.91 30.91 0 1 1 25.55 13.48z"/><rect height="15.97" rx="2.1" width="4.2" x="54.73" y="70.13"/><path d="m84.21 74.1v10.13a1.88 1.88 0 0 1 -1.88 1.87h-.45a1.87 1.87 0 0 1 -1.88-1.87v-9.23s-1.87-2.74-4.31 0v9.58s-1.9 3.56-3.9 0v-9.52s-.64-2.47-3.75-1.1l-.63 1.16v9.11a1.87 1.87 0 0 1 -1.87 1.87h-.46a1.87 1.87 0 0 1 -1.87-1.87v-12.23a1.87 1.87 0 0 1 1.87-1.87h.46a1.86 1.86 0 0 1 1.77 1.29s4-3.57 7.49.44c0 0 5.38-4.8 9 1.07a1.91 1.91 0 0 1 .41 1.17z"/><circle cx="56.83" cy="66.81" r="2.28"/><path d="m93.65 70.22c-4 0-7.26 3.55-7.26 7.94s3.25 7.94 7.26 7.94 7.26-3.55 7.26-7.94-3.25-7.94-7.26-7.94zm.09 12.32c-1.79 0-3.24-2-3.24-4.38s1.45-4.38 3.24-4.38 3.24 2 3.24 4.38-1.45 4.38-3.24 4.38z"/></g></g></g></svg>