<svg height="512pt" viewBox="0 0 512 512" width="512pt" xmlns="http://www.w3.org/2000/svg"><path d="m512 256c0 141.386719-114.613281 256-256 256s-256-114.613281-256-256 114.613281-256 256-256 256 114.613281 256 256zm0 0" fill="#006ef5"/><path d="m511.945312 260.269531-124.523437-124.527343c-32.394531-34.382813-79.269531-56-131.421875-56-97.753906 0-177 75.933593-177 169.605468 0 45.976563 19.109375 87.664063 50.113281 118.210938l37.054688 37.039062-1.5 39.683594 66.515625 66.519531c8.167968.785157 16.445312 1.199219 24.816406 1.199219 139.957031 0 253.664062-112.316406 255.945312-251.730469zm0 0" fill="#004eb1"/><path d="m256 79.738281c-97.75 0-177 75.941407-177 169.613281 0 62.378907 35.148438 116.878907 87.5 146.339844l-1.828125 48.589844 53.796875-29.160156c12.101562 2.5 24.652344 3.828125 37.53125 3.828125 97.75 0 177-75.9375 177-169.597657 0-93.671874-79.25-169.613281-177-169.613281zm27.988281 224.070313-54.398437-46.167969-86.339844 38.230469 84.761719-100.199219 54.398437 46.167969 86.339844-38.230469zm0 0" fill="#fff"/><path d="m433 249.351562c0 93.660157-79.25 169.597657-177 169.597657v-138.898438l27.988281 23.757813 84.761719-100.199219-86.339844 38.230469-26.410156-22.410156v-139.691407c97.75 0 177 75.941407 177 169.613281zm0 0" fill="#fff5cb"/></svg>