<svg clip-rule="evenodd" fill-rule="evenodd" height="512" image-rendering="optimizeQuality" shape-rendering="geometricPrecision" text-rendering="geometricPrecision" viewBox="0 0 512 512" width="512" xmlns="http://www.w3.org/2000/svg" xmlns:xodm="http://www.corel.com/coreldraw/odm/2003"><g id="Layer_x0020_1"><g id="_2112509117008"><g><path d="m475 444.98c-224.63 0-116.19 0-438 0-20.34 0-36.89-16.55-36.89-36.88v-359.28c0-20.33 16.55-36.88 36.89-36.88h438c20.34 0 36.89 16.55 36.89 36.88v359.28c0 20.34-16.55 36.88-36.89 36.88z" fill="#b8e0f5"/><path d="m.11 115.51v-66.69c0-20.33 16.55-36.88 36.89-36.88h438c20.34 0 36.89 16.55 36.89 36.88v66.69h-511.78z" fill="#0052c2"/><path d="m89.39 69.72h-16.74c-3.31 0-6-2.68-6-5.99s2.69-6 6-6h16.74c3.31 0 5.99 2.69 5.99 6s-2.68 5.99-5.99 5.99z" fill="#37d742"/><path d="m144.99 69.72h-16.74c-3.31 0-6-2.68-6-5.99s2.69-6 6-6h16.74c3.31 0 5.99 2.69 5.99 6s-2.68 5.99-5.99 5.99z" fill="#fc3c1d"/><path d="m200.59 69.72h-16.74c-3.31 0-6-2.68-6-5.99s2.69-6 6-6h16.74c3.31 0 5.99 2.69 5.99 6s-2.68 5.99-5.99 5.99z" fill="#ffb300"/><g fill="#fff"><path d="m224.61 197.46h-186.19c-3.31 0-6-2.69-6-6v-43.85c0-3.31 2.69-6 6-6h186.19c3.31 0 5.99 2.69 5.99 6v43.85c0 3.31-2.68 6-5.99 6z"/><path d="m473.58 197.46h-186.19c-3.31 0-5.99-2.69-5.99-6v-43.85c0-3.31 2.68-6 5.99-6h186.19c3.31 0 6 2.69 6 6v43.85c0 3.31-2.69 6-6 6z"/><path d="m473.58 267.27h-186.19c-3.31 0-5.99-2.69-5.99-6v-43.85c0-3.31 2.68-6 5.99-6h186.19c3.31 0 6 2.69 6 6v43.85c0 3.31-2.69 6-6 6z"/><path d="m473.58 337.07h-186.19c-3.31 0-5.99-2.68-5.99-5.99v-43.85c0-3.31 2.68-6 5.99-6h186.19c3.31 0 6 2.69 6 6v43.85c0 3.31-2.69 5.99-6 5.99z"/><path d="m473.58 406.88h-186.19c-3.31 0-5.99-2.68-5.99-5.99v-43.85c0-3.32 2.68-6 5.99-6h186.19c3.31 0 6 2.68 6 6v43.85c0 3.31-2.69 5.99-6 5.99z"/><path d="m224.61 267.27h-186.19c-3.31 0-6-2.69-6-6v-43.85c0-3.31 2.69-6 6-6h186.19c3.31 0 5.99 2.69 5.99 6v43.85c0 3.31-2.68 6-5.99 6z"/><path d="m224.61 337.07h-186.19c-3.31 0-6-2.68-6-5.99v-43.85c0-3.31 2.69-6 6-6h186.19c3.31 0 5.99 2.69 5.99 6v43.85c0 3.31-2.68 5.99-5.99 5.99z"/><path d="m224.61 406.88h-186.19c-3.31 0-6-2.68-6-5.99v-43.85c0-3.32 2.69-6 6-6h186.19c3.31 0 5.99 2.68 5.99 6v43.85c0 3.31-2.68 5.99-5.99 5.99z"/></g></g><path d="m411.26 406.88c-1.53 0-3.07-.58-4.24-1.76l-15.92-15.92c-2.35-2.34-2.35-6.14 0-8.48 2.34-2.34 6.14-2.34 8.48 0l15.92 15.92c2.34 2.35 2.34 6.14 0 8.49-1.17 1.17-2.7 1.75-4.24 1.75z" fill="#6cc5e0"/><path d="m308.08 427.1c-34.57 0-67.06-13.46-91.5-37.9-50.45-50.45-50.45-132.55 0-183 24.44-24.44 56.94-37.9 91.5-37.9s67.06 13.46 91.5 37.9c50.45 50.45 50.45 132.55 0 183-24.44 24.44-56.94 37.9-91.5 37.9z" fill="#6cc5e0"/><path d="m308.08 400.5c-27.46 0-53.27-10.69-72.69-30.11-19.42-19.41-30.11-45.23-30.11-72.69s10.69-53.27 30.11-72.69 45.23-30.11 72.69-30.11 53.27 10.69 72.69 30.11 30.11 45.23 30.11 72.69-10.69 53.28-30.11 72.69c-19.42 19.42-45.23 30.11-72.69 30.11z" fill="#fff"/><path d="m481.04 500.06c-7.88 0-15.27-3.05-20.81-8.59l-53.21-53.21c-5.54-5.54-8.59-12.93-8.59-20.81s3.05-15.27 8.59-20.81 12.93-8.59 20.81-8.59 15.27 3.05 20.81 8.59l53.2 53.21c11.48 11.47 11.48 30.14.01 41.62-.03.02-.05.04-.08.07-5.53 5.49-12.89 8.52-20.73 8.52z" fill="#8c593c"/><path d="m307.79 351.51c-33.76 0-63.72-20.25-76.32-51.57-.58-1.44-.58-3.04 0-4.48 12.6-31.32 42.56-51.57 76.32-51.57 33.77 0 63.72 20.25 76.32 51.57.58 1.44.58 3.04 0 4.48-12.6 31.32-42.55 51.57-76.32 51.57z" fill="#d0e8ff"/><path d="m307.79 336.3c-21.28 0-38.6-17.31-38.6-38.6 0-11.88 5.65-23.34 15.12-30.64 19.27-14.83 46.42-.41 46.63-.26 9.68 7.28 15.45 18.83 15.45 30.9 0 21.29-17.31 38.6-38.6 38.6z" fill="#0052c2"/><path d="m231.04 297.67c0-.75.15-1.5.43-2.21 12.6-31.32 42.56-51.57 76.32-51.57 33.77 0 63.72 20.25 76.32 51.57.58 1.44.58 3.04 0 4.48-.17.41-.34.82-.51 1.22-.31.3-.63.59-.99.84-1.06.76-2.28 1.12-3.49 1.12-1.86 0-3.71-.87-4.88-2.5-10.43-14.57-36.9-24.36-65.87-24.36-28.98 0-55.45 9.79-65.88 24.36-1.93 2.69-5.67 3.31-8.37 1.38-1.33-.95-2.36-2.44-3.08-4.33z" fill="#bbd1e6"/></g></g></svg>