<svg id="_46_Cyber_Security" enable-background="new 0 0 512 512" viewBox="0 0 512 512" xmlns="http://www.w3.org/2000/svg" xmlns:xlink="http://www.w3.org/1999/xlink"><linearGradient id="lg1"><stop offset="0" stop-color="#5a5a5a"/><stop offset=".4248" stop-color="#555"/><stop offset=".8643" stop-color="#494949"/><stop offset="1" stop-color="#444"/></linearGradient><linearGradient id="SVGID_1_" gradientTransform="matrix(1 0 0 -1 0 514)" gradientUnits="userSpaceOnUse" x1="201.066" x2="316.551" xlink:href="#lg1" y1="104.163" y2="47.846"/><linearGradient id="lg2"><stop offset="0" stop-color="#464646" stop-opacity="0"/><stop offset=".6727" stop-color="#252529" stop-opacity=".463"/><stop offset="1" stop-color="#000009"/></linearGradient><linearGradient id="SVGID_00000129171890004244747520000011254301487306184592_" gradientTransform="matrix(1 0 0 -1 0 514)" gradientUnits="userSpaceOnUse" x1="258.426" x2="322.015" xlink:href="#lg2" y1="81.185" y2="81.185"/><linearGradient id="SVGID_00000133503122679209505510000014561011058755534488_" gradientTransform="matrix(1 0 0 -1 0 514)" gradientUnits="userSpaceOnUse" x1="259.314" x2="265.017" xlink:href="#lg2" y1="55.34" y2="124.489"/><linearGradient id="SVGID_00000096772620212383364060000001218689154539265443_" gradientTransform="matrix(1 0 0 -1 0 514)" gradientUnits="userSpaceOnUse" x1="256" x2="256" xlink:href="#lg2" y1="61.852" y2="24.673"/><linearGradient id="SVGID_00000154413195585812913070000006115598946721223301_" gradientTransform="matrix(1 0 0 -1 0 514)" gradientUnits="userSpaceOnUse" x1="213.394" x2="301.79" xlink:href="#lg1" y1="461.371" y2="107.786"/><linearGradient id="SVGID_00000170267362880983614080000007957728982416572319_" gradientTransform="matrix(1 0 0 -1 0 514)" gradientUnits="userSpaceOnUse" x1="256" x2="256" xlink:href="#lg2" y1="175.539" y2="114.233"/><linearGradient id="SVGID_00000155863156779105197100000013091451138899154091_" gradientTransform="matrix(1 0 0 -1 0 514)" gradientUnits="userSpaceOnUse" x1="445.911" x2="518.75" xlink:href="#lg2" y1="290.945" y2="290.945"/><linearGradient id="SVGID_00000114761239386600100520000014226381212016883368_" gradientTransform="matrix(1 0 0 -1 0 514)" gradientUnits="userSpaceOnUse" x1="441.158" x2="382.703" xlink:href="#lg2" y1="430.993" y2="430.993"/><linearGradient id="SVGID_00000093877418573663507360000008506979086181497487_" gradientTransform="matrix(1 0 0 -1 0 514)" gradientUnits="userSpaceOnUse" x1="202.502" x2="327.968" y1="445.539" y2="124.747"><stop offset="0" stop-color="#fef0ae"/><stop offset=".1479" stop-color="#feefa9"/><stop offset=".3013" stop-color="#feef9d"/><stop offset=".4571" stop-color="#feee88"/><stop offset=".6148" stop-color="#feed6b"/><stop offset=".7738" stop-color="#feeb46"/><stop offset=".9317" stop-color="#fee918"/><stop offset="1" stop-color="#fee903"/></linearGradient><linearGradient id="lg3"><stop offset="0" stop-color="#fe9038" stop-opacity="0"/><stop offset=".1207" stop-color="#fe9038" stop-opacity=".016"/><stop offset=".2459" stop-color="#fe9038" stop-opacity=".065"/><stop offset=".3731" stop-color="#fe9038" stop-opacity=".147"/><stop offset=".5018" stop-color="#fe9038" stop-opacity=".262"/><stop offset=".6317" stop-color="#fe9038" stop-opacity=".41"/><stop offset=".7625" stop-color="#fe9038" stop-opacity=".59"/><stop offset=".8916" stop-color="#fe9038" stop-opacity=".8"/><stop offset="1" stop-color="#fe9038"/></linearGradient><linearGradient id="SVGID_00000048464081263784295750000015745513201686387115_" gradientTransform="matrix(1 0 0 -1 0 514)" gradientUnits="userSpaceOnUse" x1="420.252" x2="284.45" xlink:href="#lg3" y1="287.423" y2="362.274"/><linearGradient id="SVGID_00000113333400275363342250000003868725875877132222_" gradientTransform="matrix(1 0 0 -1 0 514)" gradientUnits="userSpaceOnUse" x1="256" x2="256" xlink:href="#lg3" y1="401.163" y2="448.407"/><linearGradient id="lg4"><stop offset="0" stop-color="#fff" stop-opacity="0"/><stop offset=".1205" stop-color="#fff" stop-opacity=".016"/><stop offset=".2454" stop-color="#fff" stop-opacity=".065"/><stop offset=".3724" stop-color="#fff" stop-opacity=".147"/><stop offset=".5008" stop-color="#fff" stop-opacity=".261"/><stop offset=".6304" stop-color="#fff" stop-opacity=".408"/><stop offset=".761" stop-color="#fff" stop-opacity=".588"/><stop offset=".8898" stop-color="#fff" stop-opacity=".797"/><stop offset="1" stop-color="#fff"/></linearGradient><linearGradient id="SVGID_00000145738318932811454560000014077307103352294063_" gradientTransform="matrix(1 0 0 -1 0 514)" gradientUnits="userSpaceOnUse" x1="128.269" x2="128.269" xlink:href="#lg4" y1="370.05" y2="413.266"/><linearGradient id="SVGID_00000026851675783856987560000002181346895774189992_" gradientTransform="matrix(1 0 0 -1 0 514)" gradientUnits="userSpaceOnUse" x1="89.332" x2="47.011" xlink:href="#lg4" y1="372.025" y2="414.347"/><linearGradient id="SVGID_00000114037162109280246620000018038156084552184986_" gradientTransform="matrix(1 0 0 -1 0 514)" gradientUnits="userSpaceOnUse" x1="168.717" x2="148.281" xlink:href="#lg4" y1="194.298" y2="243.248"/><linearGradient id="SVGID_00000055676642927961065330000000487388275488442039_" gradientTransform="matrix(1 0 0 -1 0 514)" gradientUnits="userSpaceOnUse" x1="105.114" x2="67.996" xlink:href="#lg4" y1="183.926" y2="221.044"/><linearGradient id="SVGID_00000128455310032992131210000005714588344007141035_" gradientTransform="matrix(1 0 0 -1 0 514)" gradientUnits="userSpaceOnUse" x1="151.267" x2="151.267" xlink:href="#lg4" y1="293.535" y2="322.525"/><linearGradient id="SVGID_00000155114901280617450190000016255166795821319808_" gradientTransform="matrix(1 0 0 -1 0 514)" gradientUnits="userSpaceOnUse" x1="125.924" x2="78.161" xlink:href="#lg4" y1="279.35" y2="327.113"/><linearGradient id="SVGID_00000176747838822980211050000017479928688116382862_" gradientTransform="matrix(-1 0 0 -1 662.963 514)" gradientUnits="userSpaceOnUse" x1="279.232" x2="279.232" xlink:href="#lg4" y1="370.05" y2="413.266"/><linearGradient id="SVGID_00000124149567099534690720000016175807573908724392_" gradientTransform="matrix(-1 0 0 -1 662.963 514)" gradientUnits="userSpaceOnUse" x1="240.295" x2="197.974" xlink:href="#lg4" y1="372.025" y2="414.347"/><linearGradient id="SVGID_00000058563438196625120630000011797439002728274093_" gradientTransform="matrix(-1 0 0 -1 662.963 514)" gradientUnits="userSpaceOnUse" x1="319.68" x2="299.244" xlink:href="#lg4" y1="194.298" y2="243.248"/><linearGradient id="SVGID_00000018936827577247481700000015733235232543885496_" gradientTransform="matrix(-1 0 0 -1 662.963 514)" gradientUnits="userSpaceOnUse" x1="256.077" x2="218.959" xlink:href="#lg4" y1="183.926" y2="221.044"/><linearGradient id="SVGID_00000072995895938247411390000016992994518811057794_" gradientTransform="matrix(-1 0 0 -1 662.963 514)" gradientUnits="userSpaceOnUse" x1="302.231" x2="302.231" xlink:href="#lg4" y1="293.535" y2="322.525"/><linearGradient id="SVGID_00000032614783098750385730000009467508556250661260_" gradientTransform="matrix(-1 0 0 -1 662.963 514)" gradientUnits="userSpaceOnUse" x1="276.887" x2="229.124" xlink:href="#lg4" y1="279.35" y2="327.113"/><linearGradient id="SVGID_00000057136579371127251810000008047131226305688716_" gradientTransform="matrix(1 0 0 -1 0 514)" gradientUnits="userSpaceOnUse" x1="72.01" x2="13.043" xlink:href="#lg3" y1="308.755" y2="308.755"/><linearGradient id="SVGID_00000168084037133193477860000007329101950435059844_" gradientTransform="matrix(1 0 0 -1 0 514)" gradientUnits="userSpaceOnUse" x1="141.005" x2="399.161" y1="506.094" y2="247.939"><stop offset="0" stop-color="#b3dafe"/><stop offset=".2145" stop-color="#aed8fe"/><stop offset=".4369" stop-color="#a2d2fe"/><stop offset=".6628" stop-color="#8dcafe"/><stop offset=".8897" stop-color="#70befe"/><stop offset="1" stop-color="#60b7ff"/></linearGradient><linearGradient id="lg5"><stop offset="0" stop-color="#3692bc" stop-opacity="0"/><stop offset=".1409" stop-color="#3692bc" stop-opacity=".022"/><stop offset=".287" stop-color="#3692bc" stop-opacity=".088"/><stop offset=".4355" stop-color="#3692bc" stop-opacity=".199"/><stop offset=".5856" stop-color="#3692bc" stop-opacity=".354"/><stop offset=".7371" stop-color="#3692bc" stop-opacity=".553"/><stop offset=".8874" stop-color="#3692bc" stop-opacity=".793"/><stop offset="1" stop-color="#3692bc"/></linearGradient><linearGradient id="SVGID_00000116231267129140271410000006957830777893803960_" gradientTransform="matrix(1 0 0 -1 0 514)" gradientUnits="userSpaceOnUse" x1="322.27" x2="337.078" xlink:href="#lg5" y1="287.269" y2="264.782"/><linearGradient id="SVGID_00000171707114363785482380000006136881330998754994_" gradientTransform="matrix(-1 0 0 -1 2542 514)" gradientUnits="userSpaceOnUse" x1="2352.269" x2="2367.078" xlink:href="#lg5" y1="287.269" y2="264.782"/><linearGradient id="SVGID_00000165920654014961356210000018412306434559376261_" gradientTransform="matrix(1 0 0 -1 0 514)" gradientUnits="userSpaceOnUse" x1="369.448" x2="397.682" xlink:href="#lg5" y1="363.155" y2="363.155"/><linearGradient id="SVGID_00000168112722269207635050000000152205740748284845_" gradientTransform="matrix(1 0 0 -1 0 514)" gradientUnits="userSpaceOnUse" x1="77.11" x2="376.207" xlink:href="#lg5" y1="566.885" y2="267.787"/><linearGradient id="SVGID_00000060005892552285199240000011097518018524975286_" gradientTransform="matrix(1 0 0 -1 0 514)" gradientUnits="userSpaceOnUse" x1="219.352" x2="125.564" xlink:href="#lg5" y1="357.107" y2="341.476"/><linearGradient id="SVGID_00000159469001980243746110000011401955551112175540_" gradientTransform="matrix(1 0 0 -1 0 514)" gradientUnits="userSpaceOnUse" x1="249.54" x2="225.042" xlink:href="#lg5" y1="420.791" y2="485.144"/><linearGradient id="SVGID_00000094600725322664770900000011719790690702272183_" gradientTransform="matrix(-1 0 0 -1 2542 514)" gradientUnits="userSpaceOnUse" x1="2279.54" x2="2255.042" xlink:href="#lg5" y1="420.791" y2="485.144"/><linearGradient id="SVGID_00000141440488664524729210000014713533380922411953_" gradientTransform="matrix(1 0 0 -1 0 514)" gradientUnits="userSpaceOnUse" x1="303.403" x2="232.591" xlink:href="#lg5" y1="325.381" y2="365.777"/><linearGradient id="SVGID_00000150815929140461755420000001417451686638012601_" gradientTransform="matrix(1 0 0 -1 0 514)" gradientUnits="userSpaceOnUse" x1="264.129" x2="230.267" xlink:href="#lg5" y1="412.926" y2="412.926"/><linearGradient id="SVGID_00000086680432128683522810000006116756455904096950_" gradientTransform="matrix(1 0 0 -1 0 514)" gradientUnits="userSpaceOnUse" x1="261.637" x2="240.964" xlink:href="#lg5" y1="403.304" y2="438.591"/><linearGradient id="lg6"><stop offset="0" stop-color="#eaf6ff"/><stop offset=".2729" stop-color="#e5f1fb"/><stop offset=".5557" stop-color="#d9e6ef"/><stop offset=".8419" stop-color="#c4d2dc"/><stop offset="1" stop-color="#b6c4cf"/></linearGradient><linearGradient id="SVGID_00000134216843347305744670000010600767199144874426_" gradientTransform="matrix(1 0 0 -1 0 514)" gradientUnits="userSpaceOnUse" x1="227.331" x2="277.108" xlink:href="#lg6" y1="457.732" y2="370.461"/><linearGradient id="SVGID_00000027574944386842820570000003586721552878973080_" gradientTransform="matrix(1 0 0 -1 0 514)" gradientUnits="userSpaceOnUse" x1="256" x2="256" xlink:href="#lg6" y1="372.608" y2="472.819"/><linearGradient id="lg7"><stop offset="0" stop-color="#596c76" stop-opacity="0"/><stop offset=".179" stop-color="#596c76" stop-opacity=".035"/><stop offset=".3646" stop-color="#596c76" stop-opacity=".141"/><stop offset=".5532" stop-color="#596c76" stop-opacity=".316"/><stop offset=".7438" stop-color="#596c76" stop-opacity=".563"/><stop offset=".9342" stop-color="#596c76" stop-opacity=".876"/><stop offset="1" stop-color="#596c76"/></linearGradient><linearGradient id="SVGID_00000128446693470135995120000003645166607585931147_" gradientTransform="matrix(1 0 0 -1 0 514)" gradientUnits="userSpaceOnUse" x1="286.168" x2="300.498" xlink:href="#lg7" y1="422.17" y2="422.17"/><linearGradient id="SVGID_00000023270290983764479850000008584690460272528041_" gradientTransform="matrix(1 0 0 -1 0 514)" gradientUnits="userSpaceOnUse" x1="287.565" x2="287.565" xlink:href="#lg7" y1="405.795" y2="388.327"/><linearGradient id="SVGID_00000064318226561321089020000012501867405245093764_" gradientTransform="matrix(1 0 0 -1 0 514)" gradientUnits="userSpaceOnUse" x1="224.493" x2="224.493" xlink:href="#lg7" y1="405.795" y2="388.327"/><linearGradient id="SVGID_00000181067577888541449970000012890964036572507008_" gradientTransform="matrix(1 0 0 -1 0 514)" gradientUnits="userSpaceOnUse" x1="221.832" x2="296.217" xlink:href="#lg6" y1="382.485" y2="308.099"/><linearGradient id="SVGID_00000170964891934595708720000007405573157138934411_" gradientTransform="matrix(1 0 0 -1 0 514)" gradientUnits="userSpaceOnUse" x1="298.406" x2="179.797" xlink:href="#lg6" y1="341.52" y2="360.766"/><linearGradient id="SVGID_00000021103595552727802830000014341703520763736753_" gradientTransform="matrix(1 0 0 -1 0 514)" gradientUnits="userSpaceOnUse" x1="256" x2="256" xlink:href="#lg7" y1="313.853" y2="294.885"/><linearGradient id="SVGID_00000037685313422526787930000000442365038027804090_" gradientTransform="matrix(1 0 0 -1 0 514)" gradientUnits="userSpaceOnUse" x1="294.01" x2="318" xlink:href="#lg7" y1="348.317" y2="348.317"/><linearGradient id="SVGID_00000031929023721625727300000017654370460423314308_" gradientTransform="matrix(1 0 0 -1 0 514)" gradientUnits="userSpaceOnUse" x1="239.248" x2="266.7" xlink:href="#lg1" y1="362.475" y2="341.887"/><linearGradient id="SVGID_00000045593972240098463070000015865579634934479273_" gradientTransform="matrix(1 0 0 -1 0 514)" gradientUnits="userSpaceOnUse" x1="264.637" x2="239.125" xlink:href="#lg2" y1="353.994" y2="339.896"/><linearGradient id="SVGID_00000057122746462655372780000011009024927191800496_" gradientTransform="matrix(1 0 0 -1 0 514)" gradientUnits="userSpaceOnUse" x1="276.514" x2="231.979" xlink:href="#lg2" y1="343.077" y2="354.938"/><linearGradient id="SVGID_00000156578396762806141790000002869248203255703445_" gradientTransform="matrix(1 0 0 -1 0 514)" gradientUnits="userSpaceOnUse" x1="269.473" x2="239.037" xlink:href="#lg2" y1="335.937" y2="371.743"/><linearGradient id="SVGID_00000145055230030742778540000015314635853738255261_" gradientTransform="matrix(1 0 0 -1 0 514)" gradientUnits="userSpaceOnUse" x1="256" x2="256" xlink:href="#lg1" y1="34.406" y2="13.02"/><g><path d="m321.2 498.8h-32.6l-4.9-41.4c-.8-7-4.2-13.2-9.2-17.6s-11.5-7-18.5-7c-14.1 0-26 10.6-27.7 24.6l-4.9 41.4h-32.6l15.6-132h99.1z" fill="url(#SVGID_1_)"/><path d="m321.2 498.8h-32.6l-4.9-41.4c-.8-7-4.2-13.2-9.2-17.6s-11.5-7-18.5-7c-14.1 0-26 10.6-27.7 24.6l-4.9 41.4h-32.6l15.6-132h99.1z" fill="url(#SVGID_00000129171890004244747520000011254301487306184592_)"/><path d="m321.2 498.8h-32.6l-4.9-41.4c-.8-7-4.2-13.2-9.2-17.6s-11.5-7-18.5-7c-14.1 0-26 10.6-27.7 24.6l-4.9 41.4h-32.6l15.6-132h99.1z" fill="url(#SVGID_00000133503122679209505510000014561011058755534488_)"/><path d="m321.2 498.8h-32.6l-4.9-41.4c-.8-7-4.2-13.2-9.2-17.6s-11.5-7-18.5-7c-14.1 0-26 10.6-27.7 24.6l-4.9 41.4h-32.6l15.6-132h99.1z" fill="url(#SVGID_00000096772620212383364060000001218689154539265443_)"/><g><g><g><path d="m21.2 50.5h469.6c11.7 0 21.2 9.5 21.2 21.2v302.8c0 11.7-9.5 21.2-21.2 21.2h-469.6c-11.7-.1-21.2-9.5-21.2-21.3v-302.7c0-11.7 9.5-21.2 21.2-21.2z" fill="url(#SVGID_00000154413195585812913070000006115598946721223301_)"/><path d="m0 254.7v119.8c0 11.7 9.5 21.2 21.2 21.2h469.6c11.7 0 21.2-9.5 21.2-21.2v-119.8z" fill="url(#SVGID_00000170267362880983614080000007957728982416572319_)"/><path d="m490.8 50.5h-223.1v345.2h223.1c11.7 0 21.2-9.5 21.2-21.2v-302.8c0-11.7-9.5-21.2-21.2-21.2z" fill="url(#SVGID_00000155863156779105197100000013091451138899154091_)"/><path d="m490.8 50.5h-136.5v65.1h157.7v-43.9c0-11.7-9.5-21.2-21.2-21.2z" fill="url(#SVGID_00000114761239386600100520000014226381212016883368_)"/></g><g><path d="m32.2 74.9h447.6c4 0 7.2 3.2 7.2 7.2v246.4c0 4-3.2 7.2-7.2 7.2h-447.6c-4 0-7.2-3.2-7.2-7.2v-246.4c0-4 3.2-7.2 7.2-7.2z" fill="url(#SVGID_00000093877418573663507360000008506979086181497487_)"/><path d="m479.8 74.9h-236.3v222.7l38 38h198.3c4 0 7.2-3.2 7.2-7.2v-246.3c0-4-3.2-7.2-7.2-7.2z" fill="url(#SVGID_00000048464081263784295750000015745513201686387115_)"/><path d="m479.8 74.9h-447.6c-4 0-7.2 3.2-7.2 7.2v118.4h462v-118.4c0-4-3.2-7.2-7.2-7.2z" fill="url(#SVGID_00000113333400275363342250000003868725875877132222_)"/><g><g><g><path d="m184.7 167.4-10.6 10.6-51.8-51.8c-6-6-14-9.3-22.5-9.3h-28c2.4-4.7 2.5-10.2.3-15h27.6c12.5 0 24.3 4.9 33.1 13.7z" fill="url(#SVGID_00000145738318932811454560000014077307103352294063_)"/><circle cx="56.4" cy="109.1" fill="url(#SVGID_00000026851675783856987560000002181346895774189992_)" r="17.3"/></g><g><path d="m208.1 246.5-51.8 51.8c-8.8 8.8-20.6 13.7-33.1 13.7h-27.6c2.2-4.8 2.1-10.3-.3-15h27.9c8.5 0 16.5-3.3 22.5-9.3l51.8-51.8z" fill="url(#SVGID_00000114037162109280246620000018038156084552184986_)"/><circle cx="79.9" cy="304.8" fill="url(#SVGID_00000055676642927961065330000000487388275488442039_)" r="17.3"/></g><g><path d="m196.9 190.9v16.6h-91.4c2.8-5.2 2.8-11.5 0-16.6z" fill="url(#SVGID_00000128455310032992131210000005714588344007141035_)"/><circle cx="90.5" cy="199.2" fill="url(#SVGID_00000155114901280617450190000016255166795821319808_)" r="17.3"/></g></g><g><g><path d="m327.3 167.4 10.6 10.6 51.8-51.8c6-6 14-9.3 22.5-9.3h27.9c-2.4-4.7-2.5-10.2-.3-15h-27.6c-12.5 0-24.3 4.9-33.1 13.7z" fill="url(#SVGID_00000176747838822980211050000017479928688116382862_)"/><circle cx="455.6" cy="109.1" fill="url(#SVGID_00000124149567099534690720000016175807573908724392_)" r="17.3"/></g><g><path d="m303.9 246.5 51.8 51.8c8.8 8.8 20.6 13.7 33.1 13.7h27.6c-2.2-4.8-2.1-10.3.3-15h-27.9c-8.5 0-16.5-3.3-22.5-9.3l-51.8-51.8z" fill="url(#SVGID_00000058563438196625120630000011797439002728274093_)"/><circle cx="432.1" cy="304.8" fill="url(#SVGID_00000018936827577247481700000015733235232543885496_)" r="17.3"/></g><g><path d="m315.1 190.9v16.6h91.4c-2.8-5.2-2.8-11.5 0-16.6z" fill="url(#SVGID_00000072995895938247411390000016992994518811057794_)"/><circle cx="421.5" cy="199.2" fill="url(#SVGID_00000032614783098750385730000009467508556250661260_)" r="17.3"/></g></g></g><path d="m198.2 74.9h-166c-4 0-7.2 3.2-7.2 7.2v246.4c0 4 3.2 7.2 7.2 7.2h166z" fill="url(#SVGID_00000057136579371127251810000008047131226305688716_)"/></g></g><g><g><g><path d="m243.2 4.3c-18.5 13.8-56.4 36.7-108.9 41.3-10.6.9-18.7 9.7-18.7 20.3v51.8c0 54.4 26 105.5 70 137.6l58 42.3c7.5 5.4 17.6 5.4 25.1 0l58-42.3c44-32 70-83.2 70-137.6v-51.8c0-10.6-8.2-19.4-18.7-20.3-52.8-4.6-90.7-27.5-109.2-41.3-7.6-5.7-18-5.7-25.6 0z" fill="url(#SVGID_00000168084037133193477860000007329101950435059844_)"/><path d="m115.5 83.4v34.4c0 54.4 26 105.5 70 137.6l58 42.3c7.5 5.4 17.6 5.4 25.1 0l58-42.3c44-32 70-83.2 70-137.6v-34.4c-.1 0-281.1 0-281.1 0z" fill="url(#SVGID_00000116231267129140271410000006957830777893803960_)"/><path d="m396.5 83.4v34.4c0 54.4-26 105.5-70 137.6l-58 42.3c-7.5 5.4-17.6 5.4-25.1 0l-58-42.3c-44-32-70-83.2-70-137.6v-34.4z" fill="url(#SVGID_00000171707114363785482380000006136881330998754994_)"/><path d="m377.7 45.6c-52.5-4.6-90.4-27.5-108.9-41.3-7.6-5.7-18-5.7-25.6 0-3.1 2.3-6.7 4.9-10.8 7.5v277.7l11.1 8.1c7.5 5.4 17.6 5.4 25.1 0l58-42.3c44-32 70-83.2 70-137.6v-51.8c-.1-10.6-8.3-19.4-18.9-20.3z" fill="url(#SVGID_00000165920654014961356210000018412306434559376261_)"/></g><g><path d="m199.1 236.7c-37.9-27.6-60.5-72.1-60.5-118.9v-40.2c0-5.2 3.8-9.6 8.9-10.3 46.9-6.4 82.3-25.7 102.6-39.7 3.5-2.4 8.2-2.4 11.7 0 20.4 14 55.7 33.3 102.6 39.7 5.1.7 8.9 5.1 8.9 10.3v40.2c0 46.9-22.6 91.3-60.5 118.9l-50.8 37c-3.6 2.7-8.6 2.7-12.2 0z" fill="url(#SVGID_00000168112722269207635050000000152205740748284845_)"/><path d="m269.9 33v235.1l-7.8 5.7c-3.6 2.7-8.6 2.7-12.2 0l-50.8-37c-37.9-27.6-60.5-72.1-60.5-118.9v-40.3c0-5.2 3.8-9.6 8.9-10.3 46.9-6.4 82.3-25.7 102.6-39.7 3.5-2.4 8.2-2.4 11.7 0 2.5 1.8 5.2 3.5 8.1 5.4z" fill="url(#SVGID_00000060005892552285199240000011097518018524975286_)"/><path d="m364.5 67.3c-46.9-6.4-82.3-25.7-102.6-39.7-3.5-2.4-8.2-2.4-11.7 0-20.4 14-55.7 33.3-102.6 39.7-5.1.7-8.9 5.1-8.9 10.3v40.2c0 18.3 3.4 36.2 9.9 52.8h215c6.4-16.7 9.9-34.6 9.9-52.8v-40.2c-.1-5.2-3.9-9.6-9-10.3z" fill="url(#SVGID_00000159469001980243746110000011401955551112175540_)"/><path d="m147.5 67.3c46.9-6.4 82.3-25.7 102.6-39.7 3.5-2.4 8.2-2.4 11.7 0 20.4 14 55.7 33.3 102.6 39.7 5.1.7 8.9 5.1 8.9 10.3v40.2c0 18.3-3.4 36.2-9.9 52.8h-215c-6.4-16.7-9.9-34.6-9.9-52.8v-40.2c.1-5.2 3.9-9.6 9-10.3z" fill="url(#SVGID_00000094600725322664770900000011719790690702272183_)"/><path d="m368.5 155.1-83.9-83.9-5.1 8.7c5.1 5.6 8.2 13.1 8.2 21.3 0 17.5-14.2 31.7-31.7 31.7-2.4 0-4.8-.3-7-.8l-46.5 79.5 61.1 61.1 49.4-36c27.5-20.1 47-49.2 55.5-81.6z" fill="url(#SVGID_00000141440488664524729210000014713533380922411953_)"/><circle cx="256" cy="101.1" fill="url(#SVGID_00000150815929140461755420000001417451686638012601_)" r="31.7"/><circle cx="256" cy="101.1" fill="url(#SVGID_00000086680432128683522810000006116756455904096950_)" r="31.7"/></g></g><g><g><g><path d="m255.4 59.3c-22 .4-39.4 18.7-39.4 40.6v24.4h9.4v-24.5c0-13.3 16.7-30.7 30-31 13.7-.3 31.2 17 31.2 30.6v25h9.4v-25c0-22.3-18.3-40.4-40.6-40.1z" fill="url(#SVGID_00000134216843347305744670000010600767199144874426_)"/><path d="m255.5 66.2c-17.4.3-31.2 16.7-31.2 36.3v21.8h7.4v-24.5c0-13.3 10.5-24.4 23.7-24.8 13.7-.3 24.9 10.7 24.9 24.3v25h7.4v-22.3c0-19.9-14.5-36.1-32.2-35.8z" fill="url(#SVGID_00000027574944386842820570000003586721552878973080_)"/></g><g><path d="m256 59.3v15.7c13.4 0 24.3 10.9 24.3 24.3v25h15.7v-25c0-22-17.9-40-40-40z" fill="url(#SVGID_00000128446693470135995120000003645166607585931147_)"/><path d="m280.3 99.3v25h15.7v-25c0-2.6-.3-5.1-.7-7.5h-16.2c.8 2.4 1.2 4.9 1.2 7.5z" fill="url(#SVGID_00000023270290983764479850000008584690460272528041_)"/><path d="m231.7 99.8c0-2.8.5-5.4 1.3-7.9h-16.2c-.5 2.6-.8 5.3-.8 8.1v24.4h15.7z" fill="url(#SVGID_00000064318226561321089020000012501867405245093764_)"/></g></g><g><path d="m213.3 115.6h85.4c8.8 0 16 7.2 16 16v68.2c0 8.8-7.2 16-16 16h-85.4c-8.8 0-16-7.2-16-16v-68.2c0-8.9 7.2-16 16-16z" fill="url(#SVGID_00000181067577888541449970000012890964036572507008_)"/><path d="m256 203.6c-9.1 0-16.6-7.4-16.6-16.6v-5.7c-8.7-6-13.5-16-12.7-26.6 1.2-14.3 12.8-25.8 27.1-26.8.7 0 1.4-.1 2.1-.1 16.2 0 29.3 13.2 29.3 29.3 0 9.8-4.7 18.7-12.8 24.2v5.7c.2 9.1-7.3 16.6-16.4 16.6z" fill="url(#SVGID_00000170964891934595708720000007405573157138934411_)"/><path d="m197.3 142.2v57.6c0 8.8 7.2 16 16 16h85.4c8.8 0 16-7.2 16-16v-57.6z" fill="url(#SVGID_00000021103595552727802830000014341703520763736753_)"/><path d="m298.7 115.6h-61.5v100.3h61.5c8.8 0 16-7.2 16-16v-68.2c0-9-7.2-16.1-16-16.1z" fill="url(#SVGID_00000037685313422526787930000000442365038027804090_)"/></g><g><path d="m275.9 157.1c0-11.5-9.7-20.7-21.4-19.9-9.7.7-17.6 8.5-18.4 18.2-.6 7.8 3.3 14.8 9.3 18.6 2.1 1.3 3.3 3.7 3.3 6.2v6.8c0 4 3.2 7.2 7.2 7.2 4 0 7.2-3.2 7.2-7.2v-6.8c0-2.5 1.3-4.9 3.4-6.2 5.7-3.5 9.4-9.8 9.4-16.9z" fill="url(#SVGID_00000031929023721625727300000017654370460423314308_)"/><path d="m275.9 157.1c0-11.5-9.7-20.7-21.4-19.9-9.7.7-17.6 8.5-18.4 18.2-.6 7.8 3.3 14.8 9.3 18.6 2.1 1.3 3.3 3.7 3.3 6.2v6.8c0 4 3.2 7.2 7.2 7.2 4 0 7.2-3.2 7.2-7.2v-6.8c0-2.5 1.3-4.9 3.4-6.2 5.7-3.5 9.4-9.8 9.4-16.9z" fill="url(#SVGID_00000045593972240098463070000015865579634934479273_)"/><path d="m275.9 157.1c0-11.5-9.7-20.7-21.4-19.9-9.7.7-17.6 8.5-18.4 18.2-.6 7.8 3.3 14.8 9.3 18.6 2.1 1.3 3.3 3.7 3.3 6.2v6.8c0 4 3.2 7.2 7.2 7.2 4 0 7.2-3.2 7.2-7.2v-6.8c0-2.5 1.3-4.9 3.4-6.2 5.7-3.5 9.4-9.8 9.4-16.9z" fill="url(#SVGID_00000057122746462655372780000011009024927191800496_)"/><path d="m275.9 157.1c0-11.5-9.7-20.7-21.4-19.9-9.7.7-17.6 8.5-18.4 18.2-.6 7.8 3.3 14.8 9.3 18.6 2.1 1.3 3.3 3.7 3.3 6.2v6.8c0 4 3.2 7.2 7.2 7.2 4 0 7.2-3.2 7.2-7.2v-6.8c0-2.5 1.3-4.9 3.4-6.2 5.7-3.5 9.4-9.8 9.4-16.9z" fill="url(#SVGID_00000156578396762806141790000002869248203255703445_)"/></g></g></g></g><path d="m188.1 477.6h135.8c11.5 0 20.8 9.3 20.8 20.8 0 7.5-6.1 13.6-13.6 13.6h-150.3c-7.5 0-13.6-6.1-13.6-13.6 0-11.5 9.4-20.8 20.9-20.8z" fill="url(#SVGID_00000145055230030742778540000015314635853738255261_)"/></g></svg>