<svg id="Capa_1" enable-background="new 0 0 512 512" height="512" viewBox="0 0 512 512" width="512" xmlns="http://www.w3.org/2000/svg" xmlns:xlink="http://www.w3.org/1999/xlink"><linearGradient id="SVGID_1_" gradientUnits="userSpaceOnUse" x1="35.19" x2="424.906" y1="388.519" y2="-1.197"><stop offset="0" stop-color="#ffd8d8" stop-opacity="0"/><stop offset=".9981" stop-color="#ffb2b2"/></linearGradient><linearGradient id="SVGID_00000046310215065856553690000009811517012416598932_" gradientUnits="userSpaceOnUse" x1="250.736" x2="250.736" y1="369.51" y2="93.22"><stop offset="0" stop-color="#ff4d4d" stop-opacity=".4"/><stop offset=".1463" stop-color="#ff4d4d" stop-opacity=".342"/><stop offset="1" stop-color="#ff4d4d" stop-opacity="0"/></linearGradient><g><g><path d="m506.654 127.571c-7.266-56.172-37.822-127.571-167.386-127.571-89.477 0-90.686 42.86-185.991 21.61-69.453-15.485-138.511 35.599-148.111 106.961-10.356 76.984 45.331 112.275 63.409 176.866 19.501 69.672 33.507 206.563 120.277 206.563 95.678 0 100.618-74.035 162.591-155.271 59.629-78.166 170.626-109.984 155.211-229.158z" fill="url(#SVGID_1_)"/></g><g><g><g><g><g><g><g><g><g><path d="m454.81 322.35-5 5h-398.17l-4.99-5v-185.43l4.99-5h398.17l5 5z" fill="#ffc498"/><path d="m454.821 235.23v77.88c-2.95.69-6.03 1.06-9.19 1.06-10.88 0-20.74-4.35-27.95-11.4l-55.68 40.82c5.38 7.25 8.62 16.21 8.72 25.92h-88.77c.14-12.69 5.62-24.09 14.28-32.09l-42.1-48.18c-1.13.04-2.26.06-3.4.06-39.54 0-73.55-23.65-88.66-57.57l-56.91 22.1c.79 3.13 1.21 6.41 1.21 9.79 0 22.09-17.91 40-40 40-7.17 0-13.9-1.89-19.72-5.19v-69.62c5.82-3.3 12.55-5.19 19.72-5.19 15.17 0 28.37 8.45 35.15 20.9l56.96-22.13c-3.09-9.48-4.77-19.59-4.77-30.1 0-12.03 2.2-23.54 6.2-34.17l-34.32-27.06c-6.5 4.56-14.41 7.25-22.95 7.25-22.09 0-40-17.91-40-40 0-1.72.11-3.42.32-5.09h79.36c.21 1.67.32 3.37.32 5.09 0 9.9-3.6 18.95-9.56 25.93l30.98 24.42c15.97-31.66 48.78-53.39 86.67-53.39 53.58 0 97.02 43.44 97.02 97.02 0 48.25-35.24 88.27-81.38 95.75l37.95 43.45c6.49-3.72 14-5.85 22.02-5.85 10.98 0 21.02 3.99 28.77 10.6l56.33-41.29c-3.69-6.06-5.81-13.17-5.81-20.78 0-22.09 17.9-40 40-40 3.16 0 6.24.37 9.19 1.06z" fill="#fa6"/><path d="m454.811 103.22v33.7h-408.17v-33.7c0-5.52 4.48-10 10-10h388.17c5.52 0 10 4.48 10 10z" fill="#fa6"/><path d="m133.081 124.24c5.96-6.98 9.56-16.03 9.56-25.93 0-1.72-.11-3.42-.32-5.09h-79.36c-.21 1.67-.32 3.37-.32 5.09 0 18.47 12.52 34.01 29.53 38.61h20.94c4.53-1.23 8.74-3.24 12.48-5.86l7.43 5.86h16.15z" fill="#ff9c33"/><path d="m385.531 93.22v38.7c0 2.77-2.24 5-5 5h-86.58c-2.76 0-5-2.23-5-5v-38.7z" fill="#ff9c33"/><path d="m454.811 322.35v37.16c0 5.52-4.48 10-10 10h-388.17c-5.52 0-10-4.48-10-10v-37.16z" fill="#6c6cff"/><path d="m362.001 343.59c5.38 7.25 8.62 16.21 8.72 25.92h-88.77c.14-12.69 5.62-24.09 14.28-32.09l-13.17-15.07h13.28l7.98 9.14c6.49-3.72 14-5.85 22.02-5.85 10.98 0 21.02 3.99 28.77 10.6l18.95-13.89h16.91z" fill="#4d4dff"/><path d="m191.061 369.51h119.33v58.94h-119.33z" fill="#b2b2ff"/><path d="m310.391 369.51v41.96c-16.64-6.41-28.45-22.54-28.45-41.44v-.52z" fill="#9393ff"/><path d="m191.066 369.511h119.33v24h-119.33z" fill="#9393ff"/><g><path d="m326.701 450.751h-151.946c-3.314 0-6-2.686-6-6v-10.295c0-3.314 2.686-6 6-6h151.946c3.314 0 6 2.686 6 6v10.295c0 3.314-2.686 6-6 6z" fill="#d8d8ff"/></g></g></g></g></g></g></g></g><g><g><path d="m169.582 140.801c-1.108 0-2.224-.366-3.15-1.119l-39.443-32.457c-2.143-1.742-2.469-4.891-.728-7.034 1.742-2.144 4.892-2.467 7.034-.728l39.443 32.457c2.143 1.742 2.469 4.891.728 7.034-.988 1.216-2.431 1.847-3.884 1.847z" fill="#ff7300"/></g><g><circle cx="102.638" cy="74.311" fill="#ffc498" r="40"/><path d="m121.717 86.319-7.958-7.958c3.32-6.337 2.321-14.364-2.998-19.683-6.55-6.549-17.206-6.549-23.756 0-6.549 6.549-6.549 17.207 0 23.756 3.275 3.274 7.576 4.912 11.878 4.912 2.685 0 5.369-.638 7.805-1.914l7.958 7.958c.977.976 2.256 1.464 3.536 1.464s2.559-.488 3.536-1.464c1.952-1.952 1.952-5.118-.001-7.071zm-27.64-10.956c-2.65-2.65-2.65-6.963 0-9.613 1.325-1.325 3.066-1.988 4.807-1.988s3.481.663 4.807 1.988c2.65 2.65 2.65 6.963 0 9.613s-6.963 2.651-9.614 0z" fill="#fff"/></g></g><g><path d="m444.821 93.22h-388.17c-5.52 0-10 4.48-10 10v256.29c0 5.52 4.48 10 10 10h388.17c5.52 0 10-4.48 10-10v-256.29c0-5.52-4.48-10-10-10z" fill="url(#SVGID_00000046310215065856553690000009811517012416598932_)"/><path d="m383.638 410.864c-1.393 0-2.778-.579-3.768-1.71l-30.795-35.499c-1.816-2.08-1.604-5.238.476-7.056 2.079-1.815 5.238-1.604 7.056.476l30.795 35.499c1.816 2.08 1.604 5.238-.476 7.056-.948.828-2.121 1.234-3.288 1.234z" fill="#ff4d4d"/><path d="m307.065 323.521c-1.393 0-2.778-.579-3.768-1.71l-55.479-63.355c-1.816-2.08-1.604-5.238.476-7.056 2.08-1.815 5.237-1.604 7.056.476l55.479 63.355c1.816 2.08 1.604 5.238-.476 7.056-.948.828-2.121 1.234-3.288 1.234z" fill="#8282ff"/><path d="m358.789 320.745c-1.539 0-3.057-.708-4.036-2.044-1.633-2.228-1.151-5.356 1.076-6.988l55.525-40.7c2.228-1.633 5.356-1.149 6.988 1.076 1.633 2.228 1.151 5.356-1.076 6.988l-55.525 40.7c-.89.654-1.926.968-2.952.968z" fill="#ff4d4d"/><g><circle cx="326.339" cy="346.029" fill="#b2b2ff" r="44.393"/></g><path d="m342.952 340.222c0-9.16-7.453-16.613-16.613-16.613s-16.613 7.453-16.613 16.613c0 4.518 1.818 8.615 4.755 11.613-2.937 2.998-4.755 7.095-4.755 11.613 0 2.762 2.238 5 5 5s5-2.238 5-5c0-3.646 2.967-6.613 6.613-6.613s6.613 2.967 6.613 6.613c0 2.762 2.238 5 5 5s5-2.238 5-5c0-4.518-1.818-8.615-4.755-11.613 2.937-2.998 4.755-7.095 4.755-11.613zm-16.613-6.613c3.646 0 6.613 2.967 6.613 6.613s-2.967 6.613-6.613 6.613-6.613-2.967-6.613-6.613 2.966-6.613 6.613-6.613z" fill="#fff"/></g><path d="m100.864 231.365c-2.003 0-3.893-1.212-4.662-3.19-.999-2.574.276-5.472 2.851-6.472l59.292-23.257c2.569-.997 5.471.277 6.472 2.851.999 2.574-.276 5.472-2.851 6.472l-59.292 23.257c-.595.23-1.207.339-1.81.339z" fill="#ff4d4d"/><g><circle cx="410.381" cy="435.603" fill="#ff6c6c" r="40"/><path d="m429.461 447.611-7.958-7.958c3.32-6.337 2.321-14.364-2.998-19.683-6.55-6.549-17.206-6.549-23.756 0-6.549 6.549-6.549 17.207 0 23.756 3.275 3.274 7.576 4.912 11.878 4.912 2.685 0 5.369-.638 7.805-1.914l7.958 7.958c.977.976 2.256 1.464 3.536 1.464s2.559-.488 3.536-1.464c1.951-1.952 1.951-5.118-.001-7.071zm-27.64-10.955c-2.65-2.65-2.65-6.963 0-9.613 1.325-1.325 3.066-1.988 4.807-1.988s3.481.663 4.807 1.988c2.65 2.65 2.65 6.963 0 9.613s-6.964 2.65-9.614 0z" fill="#fff"/></g><g><circle cx="445.627" cy="250.167" fill="#ff6c6c" r="40"/><path d="m464.707 262.175-7.958-7.958c3.32-6.337 2.321-14.364-2.998-19.683-6.55-6.549-17.206-6.549-23.756 0-6.549 6.549-6.549 17.207 0 23.756 3.275 3.274 7.576 4.912 11.878 4.912 2.685 0 5.369-.638 7.805-1.914l7.958 7.958c.977.976 2.256 1.464 3.536 1.464s2.559-.488 3.536-1.464c1.951-1.952 1.951-5.118-.001-7.071zm-27.64-10.956c-2.65-2.65-2.65-6.963 0-9.613 1.325-1.325 3.066-1.988 4.807-1.988s3.481.663 4.807 1.988c2.65 2.65 2.65 6.963 0 9.613s-6.964 2.651-9.614 0z" fill="#fff"/></g><g><circle cx="66.373" cy="239.618" fill="#ff6c6c" r="40"/><path d="m85.452 251.626-7.958-7.958c3.32-6.337 2.321-14.364-2.998-19.683-6.55-6.549-17.206-6.549-23.756 0-6.549 6.549-6.549 17.207 0 23.756 3.275 3.274 7.576 4.912 11.878 4.912 2.685 0 5.369-.638 7.805-1.914l7.958 7.958c.977.976 2.256 1.464 3.536 1.464s2.559-.488 3.536-1.464c1.952-1.952 1.952-5.118-.001-7.071zm-27.64-10.955c-2.65-2.65-2.65-6.963 0-9.613 1.325-1.325 3.066-1.988 4.807-1.988s3.481.663 4.807 1.988c2.65 2.65 2.65 6.963 0 9.613s-6.964 2.65-9.614 0z" fill="#fff"/></g></g><path d="m114.638 439.956c-2.762 0-5-2.238-5-5 0-3.032-2.468-5.5-5.5-5.5-2.762 0-5-2.238-5-5s2.238-5 5-5c3.032 0 5.5-2.468 5.5-5.5 0-2.762 2.238-5 5-5s5 2.238 5 5c0 3.032 2.468 5.5 5.5 5.5 2.762 0 5 2.238 5 5s-2.238 5-5 5c-3.032 0-5.5 2.468-5.5 5.5 0 2.762-2.239 5-5 5z" fill="#ff6c6c"/><path d="m198.165 54.816c-2.762 0-5-2.238-5-5 0-3.032-2.468-5.5-5.5-5.5-2.762 0-5-2.238-5-5s2.238-5 5-5c3.032 0 5.5-2.468 5.5-5.5 0-2.762 2.238-5 5-5s5 2.238 5 5c0 3.032 2.468 5.5 5.5 5.5 2.762 0 5 2.238 5 5s-2.238 5-5 5c-3.032 0-5.5 2.468-5.5 5.5 0 2.762-2.238 5-5 5z" fill="#ff6c6c"/><path d="m67.824 466.751c-2.762 0-5-2.238-5-5 0-3.032-2.468-5.5-5.5-5.5-2.762 0-5-2.238-5-5s2.238-5 5-5c3.032 0 5.5-2.468 5.5-5.5 0-2.762 2.238-5 5-5s5 2.238 5 5c0 3.032 2.468 5.5 5.5 5.5 2.762 0 5 2.238 5 5s-2.238 5-5 5c-3.032 0-5.5 2.468-5.5 5.5 0 2.762-2.238 5-5 5z" fill="#ff9c33"/><g fill="#6c6cff"><path d="m434.464 69.268c-1.279 0-2.56-.488-3.535-1.465l-10.5-10.5c-1.953-1.952-1.953-5.118 0-7.07l10.5-10.5c1.951-1.953 5.119-1.953 7.07 0l10.5 10.5c1.953 1.952 1.953 5.118 0 7.07l-10.5 10.5c-.976.976-2.256 1.465-3.535 1.465zm-3.429-15.5 3.429 3.429 3.429-3.429-3.429-3.429z"/><path d="m482.485 414.48c-1.279 0-2.56-.488-3.535-1.465l-10.5-10.5c-1.953-1.952-1.953-5.118 0-7.07l10.5-10.5c1.951-1.953 5.119-1.953 7.07 0l10.5 10.5c1.953 1.952 1.953 5.118 0 7.07l-10.5 10.5c-.975.977-2.255 1.465-3.535 1.465zm-3.428-15.5 3.429 3.429 3.429-3.429-3.429-3.429z"/></g></g><g><circle cx="250.731" cy="168.289" fill="#6c6cff" r="97.015"/><path d="m342.561 136.92h-48.61c-2.76 0-5-2.23-5-5v-38.7h23.23c13.84 11.33 24.48 26.42 30.38 43.7z" fill="#4d4dff"/><circle cx="250.731" cy="168.289" fill="#8282ff" r="75.068"/><path d="m318.951 136.92h-25c-2.76 0-5-2.23-5-5v-28.25c13.08 7.74 23.6 19.35 30 33.25z" fill="#6c6cff"/><g fill="#fff"><path d="m261.403 156.722c2.762 0 5-2.238 5-5s-2.238-5-5-5h-20.873c-2.762 0-5 2.238-5 5v33.135c0 2.762 2.238 5 5 5h20.873c2.762 0 5-2.238 5-5s-2.238-5-5-5h-15.873v-6.567h11.4c2.762 0 5-2.238 5-5s-2.238-5-5-5h-11.4v-6.567h15.873z"/><path d="m290.8 146.722h-5.877c-6.892 0-12.498 5.606-12.498 12.498v18.139c0 6.892 5.606 12.498 12.498 12.498h5.877c6.892 0 12.498-5.606 12.498-12.498v-18.139c0-6.892-5.607-12.498-12.498-12.498zm2.498 30.636c0 1.377-1.121 2.498-2.498 2.498h-5.877c-1.377 0-2.498-1.121-2.498-2.498v-18.138c0-1.377 1.121-2.498 2.498-2.498h5.877c1.377 0 2.498 1.121 2.498 2.498z"/><path d="m211.448 156.722h10.355c2.762 0 5-2.238 5-5s-2.238-5-5-5h-10.355c-7.324 0-13.283 5.959-13.283 13.284 0 7.324 5.959 13.283 13.283 13.283h2.071c1.811 0 3.284 1.474 3.284 3.284s-1.474 3.283-3.284 3.283h-10.354c-2.762 0-5 2.238-5 5s2.238 5 5 5h10.354c7.325 0 13.284-5.959 13.284-13.283 0-7.325-5.959-13.284-13.284-13.284h-2.071c-1.811 0-3.283-1.473-3.283-3.283s1.473-3.284 3.283-3.284z"/></g></g><g><g><path d="m380.528 112.925h-86.572c-2.761 0-5-2.239-5-5v-64.736c0-2.761 2.239-5 5-5h86.572c2.761 0 5 2.239 5 5v64.736c0 2.761-2.239 5-5 5z" fill="#ff6c6c"/></g><g><g><path d="m309.283 85.826c0 2.761 2.239 5 5 5h47.931c2.761 0 5-2.239 5-5s-2.239-5-5-5h-47.931c-2.762 0-5 2.238-5 5z" fill="#fff"/></g><g><path d="m309.283 65.289c0 2.761 2.239 5 5 5h27.931c2.761 0 5-2.239 5-5s-2.239-5-5-5h-27.931c-2.762 0-5 2.239-5 5z" fill="#fff"/></g></g></g></g></svg>