<svg id="Capa_1" enable-background="new 0 0 510 510" height="512" viewBox="0 0 510 510" width="512" xmlns="http://www.w3.org/2000/svg" xmlns:xlink="http://www.w3.org/1999/xlink"><linearGradient id="lg1"><stop offset="0" stop-color="#deecf1"/><stop offset="1" stop-color="#8ebac5"/></linearGradient><linearGradient id="SVGID_1_" gradientUnits="userSpaceOnUse" x1="285.449" x2="337.198" xlink:href="#lg1" y1="418.753" y2="418.753"/><linearGradient id="lg2"><stop offset="0" stop-color="#678d98" stop-opacity="0"/><stop offset=".2265" stop-color="#638892" stop-opacity=".227"/><stop offset=".5216" stop-color="#597b82" stop-opacity=".522"/><stop offset=".8533" stop-color="#476567" stop-opacity=".853"/><stop offset="1" stop-color="#3e5959"/></linearGradient><linearGradient id="SVGID_00000140710902665259873890000018059560526183003567_" gradientUnits="userSpaceOnUse" x1="255" x2="255" xlink:href="#lg2" y1="430.42" y2="377.715"/><linearGradient id="SVGID_00000011722406494812057040000016618070890776942985_" gradientUnits="userSpaceOnUse" x1="255" x2="255" xlink:href="#lg2" y1="414.42" y2="465.244"/><linearGradient id="SVGID_00000020365349935693145450000016028210678358558395_" gradientUnits="userSpaceOnUse" x1="159.958" x2="329.597" xlink:href="#lg1" y1="1.846" y2="364.904"/><linearGradient id="SVGID_00000034070529888760014440000012142097557421224848_" gradientUnits="userSpaceOnUse" x1="457" x2="513" xlink:href="#lg2" y1="205.253" y2="205.253"/><linearGradient id="lg3"><stop offset="0" stop-color="#5a5a5a"/><stop offset="1" stop-color="#444"/></linearGradient><linearGradient id="SVGID_00000018949714566759689570000008319788180497170839_" gradientUnits="userSpaceOnUse" x1="182.883" x2="315.577" xlink:href="#lg3" y1="-18.222" y2="359.447"/><linearGradient id="SVGID_00000005248676583156334230000001838480369977788301_" gradientUnits="userSpaceOnUse" x1="453" x2="505" y1="174.606" y2="174.606"><stop offset="0" stop-color="#433f43" stop-opacity="0"/><stop offset=".3174" stop-color="#3b373b" stop-opacity=".317"/><stop offset=".8224" stop-color="#242324" stop-opacity=".822"/><stop offset="1" stop-color="#1a1a1a"/></linearGradient><linearGradient id="SVGID_00000018919830124877473500000004065131125124164500_" gradientUnits="userSpaceOnUse" x1="255" x2="255" xlink:href="#lg2" y1="368.984" y2="399.892"/><linearGradient id="SVGID_00000020359665597738802990000006513283990302975638_" gradientUnits="userSpaceOnUse" x1="195.284" x2="309.141" y1="4.646" y2="328.699"><stop offset="0" stop-color="#a6e7f0"/><stop offset=".1713" stop-color="#90e2ed"/><stop offset=".5295" stop-color="#56d7e7"/><stop offset="1" stop-color="#02c7dd"/></linearGradient><linearGradient id="lg4"><stop offset="0" stop-color="#0199b1" stop-opacity="0"/><stop offset="1" stop-color="#0199b1"/></linearGradient><linearGradient id="SVGID_00000171698702090627651520000013582920439515394732_" gradientUnits="userSpaceOnUse" x1="427" x2="489.032" xlink:href="#lg4" y1="174.606" y2="174.606"/><linearGradient id="SVGID_00000137115341088485755440000008196046397582822555_" gradientUnits="userSpaceOnUse" x1="404.619" x2="360.619" xlink:href="#lg4" y1="272.94" y2="235.94"/><linearGradient id="SVGID_00000149351208591453108030000013672978590037015187_" gradientUnits="userSpaceOnUse" x1="255" x2="255" xlink:href="#lg1" y1="466.132" y2="497.933"/><linearGradient id="SVGID_00000162333284791182416880000010337706542043475074_" gradientUnits="userSpaceOnUse" x1="255" x2="255" xlink:href="#lg2" y1="466.132" y2="497.933"/><linearGradient id="SVGID_00000008127910715606889580000016804134517284736690_" gradientUnits="userSpaceOnUse" x1="209.726" x2="268.726" y1="177.867" y2="326.867"><stop offset="0" stop-color="#f9f5f3"/><stop offset="1" stop-color="#efe2dd"/></linearGradient><linearGradient id="SVGID_00000109014985978857835890000012879635079985730460_" gradientUnits="userSpaceOnUse" x1="362.457" x2="332.957" y1="290.787" y2="253.287"><stop offset="0" stop-color="#9e9797" stop-opacity="0"/><stop offset=".3104" stop-color="#968f8f" stop-opacity=".31"/><stop offset=".7849" stop-color="#827a7a" stop-opacity=".785"/><stop offset="1" stop-color="#766e6e"/></linearGradient><linearGradient id="lg5"><stop offset="0" stop-color="#ffa1ae"/><stop offset="1" stop-color="#ff4565"/></linearGradient><linearGradient id="SVGID_00000024688452546394802630000005488802411627739027_" gradientUnits="userSpaceOnUse" x1="389.642" x2="453.182" xlink:href="#lg5" y1="146.263" y2="292.079"/><linearGradient id="lg6"><stop offset="0" stop-color="#fd4755" stop-opacity="0"/><stop offset=".2586" stop-color="#f74453" stop-opacity=".259"/><stop offset=".6211" stop-color="#e53b4c" stop-opacity=".621"/><stop offset="1" stop-color="#ca2e43"/></linearGradient><linearGradient id="SVGID_00000064351479983943042160000002327993427902854310_" gradientUnits="userSpaceOnUse" x1="420.665" x2="398.671" xlink:href="#lg6" y1="234.044" y2="221.825"/><linearGradient id="lg7"><stop offset="0" stop-color="#fff5c6"/><stop offset="1" stop-color="#fee45a"/></linearGradient><linearGradient id="SVGID_00000176031027692566144830000018054981895845253510_" gradientUnits="userSpaceOnUse" x1="299.282" x2="348.159" xlink:href="#lg7" y1="46.147" y2="203.368"/><linearGradient id="SVGID_00000156548782489440779310000005115079471769679000_" gradientUnits="userSpaceOnUse" x1="54.339" x2="130.912" y1="214.252" y2="285.123"><stop offset="0" stop-color="#9be69d"/><stop offset="1" stop-color="#0bb494"/></linearGradient><linearGradient id="SVGID_00000035496984772364749540000015529391665754854551_" gradientUnits="userSpaceOnUse" x1="173.905" x2="214.636" xlink:href="#lg7" y1="114.471" y2="198.376"/><linearGradient id="SVGID_00000057107835101524400120000008311398589688312973_" gradientUnits="userSpaceOnUse" x1="427.541" x2="427.541" xlink:href="#lg6" y1="266.23" y2="302.11"/><linearGradient id="SVGID_00000124155848201679438600000009415656008346493585_" gradientUnits="userSpaceOnUse" x1="82.459" x2="82.459" y1="250.345" y2="313.093"><stop offset="0" stop-color="#01525a" stop-opacity="0"/><stop offset="1" stop-color="#01525a"/></linearGradient><linearGradient id="lg8"><stop offset="0" stop-color="#deecf1"/><stop offset="1" stop-color="#d9b1ee"/></linearGradient><linearGradient id="SVGID_00000018939531966938781860000017419148023378371972_" gradientUnits="userSpaceOnUse" x1="239.482" x2="281.112" xlink:href="#lg8" y1="182.23" y2="242.31"/><linearGradient id="SVGID_00000103262799236810916430000012146252527460681893_" gradientUnits="userSpaceOnUse" x1="211.924" x2="253.554" xlink:href="#lg8" y1="201.325" y2="261.405"/><linearGradient id="SVGID_00000115473273845849386530000001266404101005132685_" gradientUnits="userSpaceOnUse" x1="284.362" x2="325.992" xlink:href="#lg8" y1="151.132" y2="211.212"/><linearGradient id="lg9"><stop offset="0" stop-color="#8379c1" stop-opacity="0"/><stop offset=".2831" stop-color="#8374be" stop-opacity=".283"/><stop offset=".5864" stop-color="#8268b5" stop-opacity=".586"/><stop offset=".898" stop-color="#8152a6" stop-opacity=".898"/><stop offset="1" stop-color="#814aa0"/></linearGradient><linearGradient id="SVGID_00000008856658105734772690000009577679048770904721_" gradientUnits="userSpaceOnUse" x1="291.496" x2="309.496" xlink:href="#lg9" y1="189.955" y2="200.622"/><linearGradient id="SVGID_00000149359650034619773160000000548417466390643633_" gradientUnits="userSpaceOnUse" x1="227.997" x2="269.628" xlink:href="#lg8" y1="190.188" y2="250.268"/><linearGradient id="SVGID_00000000914471485836968510000002458231447949001910_" gradientUnits="userSpaceOnUse" x1="323.945" x2="363.21" xlink:href="#lg3" y1="202.029" y2="241.767"/><linearGradient id="lg10"><stop offset="0" stop-color="#766e6e" stop-opacity="0"/><stop offset="1" stop-color="#1a1a1a"/></linearGradient><linearGradient id="SVGID_00000071545976833414989330000008092269491258584982_" gradientTransform="matrix(.707 .707 -.707 .707 -2463.972 -791.137)" gradientUnits="userSpaceOnUse" x1="2699.785" x2="2699.785" xlink:href="#lg10" y1="-1245.808" y2="-1182.951"/><linearGradient id="SVGID_00000120555844609447534280000014054572260330966169_" gradientTransform="matrix(.707 .707 -.707 .707 -2463.972 -791.137)" gradientUnits="userSpaceOnUse" x1="2725.075" x2="2684.751" xlink:href="#lg10" y1="-1272.431" y2="-1263.877"/><linearGradient id="lg11"><stop offset="0" stop-color="#deecf1" stop-opacity="0"/><stop offset="1" stop-color="#d9b1ee"/></linearGradient><linearGradient id="SVGID_00000087405680804582486400000002747969643348293303_" gradientUnits="userSpaceOnUse" x1="382" x2="347" xlink:href="#lg11" y1="181.137" y2="181.137"/><linearGradient id="SVGID_00000075876959994167108960000007023760756814339211_" gradientUnits="userSpaceOnUse" x1="343" x2="303.665" xlink:href="#lg9" y1="238.521" y2="238.521"/><linearGradient id="SVGID_00000111173215116863407700000012422325467801985922_" gradientUnits="userSpaceOnUse" x1="230.21" x2="267.255" xlink:href="#lg5" y1="283.174" y2="320.219"/><linearGradient id="SVGID_00000062185660493243650050000004460143863036974728_" gradientUnits="userSpaceOnUse" x1="255" x2="255" xlink:href="#lg6" y1="308.547" y2="362.734"/><linearGradient id="SVGID_00000056423116039058014140000007780858054222205343_" gradientTransform="matrix(.707 -.707 .707 .707 2313.646 -1134.189)" gradientUnits="userSpaceOnUse" x1="-2475.438" x2="-2475.438" xlink:href="#lg6" y1="-435.344" y2="-378.306"/><linearGradient id="SVGID_00000183941850592147401140000013687800695052087168_" gradientUnits="userSpaceOnUse" x1="327.667" x2="287.665" xlink:href="#lg11" y1="181.137" y2="181.137"/><g><g><path d="m177 370.753h156v96h-156z" fill="url(#SVGID_1_)"/><path d="m177 370.753h156v96h-156z" fill="url(#SVGID_00000140710902665259873890000018059560526183003567_)"/><path d="m177 370.753h156v96h-156z" fill="url(#SVGID_00000011722406494812057040000016618070890776942985_)"/><g><path d="m480 393.753h-450c-16.569 0-30-13.431-30-30v-317c0-16.569 13.431-30 30-30h450c16.569 0 30 13.431 30 30v317c0 16.569-13.431 30-30 30z" fill="url(#SVGID_00000020365349935693145450000016028210678358558395_)"/><path d="m480 16.753h-183v377h183c16.569 0 30-13.431 30-30v-317c0-16.569-13.431-30-30-30z" fill="url(#SVGID_00000034070529888760014440000012142097557421224848_)"/><path d="m480 16.753h-450c-16.569 0-30 13.431-30 30v285.706h510v-285.706c0-16.569-13.431-30-30-30z" fill="url(#SVGID_00000018949714566759689570000008319788180497170839_)"/><path d="m480 16.753h-183v315.706h213v-285.706c0-16.569-13.431-30-30-30z" fill="url(#SVGID_00000005248676583156334230000001838480369977788301_)"/><path d="m0 347.753v16c0 16.569 13.431 30 30 30h450c16.569 0 30-13.431 30-30v-16z" fill="url(#SVGID_00000018919830124877473500000004065131125124164500_)"/></g><g><path d="m466 41.253h-422c-9.941 0-18 8.059-18 18v230.706c0 9.941 8.059 18 18 18h422c9.941 0 18-8.059 18-18v-230.706c0-9.941-8.059-18-18-18z" fill="url(#SVGID_00000020359665597738802990000006513283990302975638_)"/><path d="m297 307.959h169c9.941 0 18-8.059 18-18v-230.706c0-9.941-8.059-18-18-18h-169z" fill="url(#SVGID_00000171698702090627651520000013582920439515394732_)"/><path d="m484 187.496-54.266-54.266-174.729 174.729h210.995c9.941 0 18-8.059 18-18z" fill="url(#SVGID_00000137115341088485755440000008196046397582822555_)"/></g><g><path d="m362.889 493.247h-215.778c-6.151 0-11.137-4.986-11.137-11.137 0-19.064 15.455-34.519 34.519-34.519h169.015c19.064 0 34.519 15.455 34.519 34.519-.001 6.151-4.987 11.137-11.138 11.137z" fill="url(#SVGID_00000149351208591453108030000013672978590037015187_)"/><path d="m362.889 493.247h-215.778c-6.151 0-11.137-4.986-11.137-11.137 0-19.064 15.455-34.519 34.519-34.519h169.015c19.064 0 34.519 15.455 34.519 34.519-.001 6.151-4.987 11.137-11.138 11.137z" fill="url(#SVGID_00000162333284791182416880000010337706542043475074_)"/></g></g><path d="m61.352 307.959h387.297c-3.074-104.313-88.592-187.933-193.649-187.933s-190.575 83.62-193.648 187.933z" fill="url(#SVGID_00000008127910715606889580000016804134517284736690_)"/><path d="m389.053 173.91-134.048 134.049h193.643c-1.551-52.657-24.118-100.032-59.595-134.049z" fill="url(#SVGID_00000109014985978857835890000012879635079985730460_)"/><g><g><g><path d="m435.259 307.963h30.548c0-58.12-23.642-110.821-61.814-148.993l-21.591 21.591c32.641 32.64 52.857 77.705 52.857 127.402z" fill="url(#SVGID_00000024688452546394802630000005488802411627739027_)"/><path d="m435.259 307.963h30.548c0-58.12-23.642-110.821-61.814-148.993l-21.591 21.591c32.641 32.64 52.857 77.705 52.857 127.402z" fill="url(#SVGID_00000064351479983943042160000002327993427902854310_)"/><path d="m382.403 180.561 21.591-21.591c-38.173-38.171-90.874-61.813-148.994-61.813v30.548c49.697 0 94.762 20.216 127.403 52.856z" fill="url(#SVGID_00000176031027692566144830000018054981895845253510_)"/><path d="m44.193 307.963h30.548c0-49.697 20.216-94.762 52.856-127.402l-21.591-21.591c-38.171 38.172-61.813 90.874-61.813 148.993z" fill="url(#SVGID_00000156548782489440779310000005115079471769679000_)"/><path d="m255 127.705v-30.548c-58.12 0-110.821 23.642-148.993 61.814l21.591 21.591c32.64-32.641 77.704-52.857 127.402-52.857z" fill="url(#SVGID_00000035496984772364749540000015529391665754854551_)"/></g><path d="m465.806 307.959h-30.548c0-46.103-17.4-88.223-45.981-120.127h38.857c23.742 34.104 37.672 75.527 37.672 120.127z" fill="url(#SVGID_00000057107835101524400120000008311398589688312973_)"/><path d="m120.723 187.832c-28.581 31.904-45.981 74.024-45.981 120.127h-30.548c0-44.6 13.93-86.023 37.672-120.127z" fill="url(#SVGID_00000124155848201679438600000009415656008346493585_)"/><g><path d="m224.378 188.31h28.692c3.962 0 7.173-3.212 7.173-7.173 0-3.962-3.212-7.173-7.173-7.173h-28.692c-3.962 0-7.173 3.211-7.173 7.173-.001 3.961 3.211 7.173 7.173 7.173z" fill="url(#SVGID_00000018939531966938781860000017419148023378371972_)"/><path d="m232.162 202.656h-28.692c-3.962 0-7.173 3.212-7.173 7.173 0 3.962 3.212 7.173 7.173 7.173h28.693c3.962 0 7.173-3.211 7.173-7.173-.001-3.962-3.212-7.173-7.174-7.173z" fill="url(#SVGID_00000103262799236810916430000012146252527460681893_)"/><path d="m374.865 202.656h-99.664c-3.962 0-7.173 3.212-7.173 7.173 0 3.962 3.212 7.173 7.173 7.173h99.664c3.962 0 7.173-3.211 7.173-7.173s-3.211-7.173-7.173-7.173z" fill="url(#SVGID_00000115473273845849386530000001266404101005132685_)"/><path d="m374.865 202.656h-99.664c-3.962 0-7.173 3.212-7.173 7.173 0 3.962 3.212 7.173 7.173 7.173h99.664c3.962 0 7.173-3.211 7.173-7.173s-3.211-7.173-7.173-7.173z" fill="url(#SVGID_00000008856658105734772690000009577679048770904721_)"/><path d="m268.981 231.348h-14.985c-3.962 0-7.173 3.212-7.173 7.173s3.212 7.173 7.173 7.173h14.985c3.962 0 7.173-3.212 7.173-7.173s-3.211-7.173-7.173-7.173z" fill="url(#SVGID_00000149359650034619773160000000548417466390643633_)"/></g><g><path d="m419.213 130.238-15.671 3.691c-1 .235-1.997.483-2.99.741-24.701 6.426-46.724 20.333-63.658 39.294h-40.787c-3.962 0-7.173 3.211-7.173 7.173s3.212 7.173 7.173 7.173h29.228l-83.083 106.908 25.492 25.492 114.136-88.7c22.599-17.562 39.206-41.901 46.412-69.599.258-.993.505-1.99.741-2.99l3.691-15.67c1.915-8.126-5.386-15.426-13.511-13.513z" fill="url(#SVGID_00000000914471485836968510000002458231447949001910_)"/><path d="m382.509 231.502c-6.134-10.211-13.593-19.847-22.396-28.651-8.803-8.803-18.44-16.263-28.651-22.396-.166.212-.342.414-.507.627l-88.7 114.136 25.492 25.492 114.136-88.7c.211-.166.414-.341.626-.508z" fill="url(#SVGID_00000071545976833414989330000008092269491258584982_)"/><path d="m267.746 320.709 114.136-88.7c22.599-17.562 39.206-41.901 46.412-69.599.258-.993.505-1.989.741-2.99l3.691-15.671c.957-4.062-.39-7.919-2.991-10.52l-174.735 174.735z" fill="url(#SVGID_00000120555844609447534280000014054572260330966169_)"/></g></g><path d="m354.711 188.31h28.692c3.962 0 7.173-3.212 7.173-7.173 0-3.962-3.212-7.173-7.173-7.173h-28.692c-3.962 0-7.173 3.211-7.173 7.173 0 3.961 3.211 7.173 7.173 7.173z" fill="url(#SVGID_00000087405680804582486400000002747969643348293303_)"/><path d="m313.044 245.694h28.692c3.962 0 7.173-3.212 7.173-7.173 0-3.962-3.212-7.173-7.173-7.173h-28.692c-3.962 0-7.173 3.211-7.173 7.173s3.212 7.173 7.173 7.173z" fill="url(#SVGID_00000075876959994167108960000007023760756814339211_)"/><g><circle cx="255" cy="307.964" fill="url(#SVGID_00000111173215116863407700000012422325467801985922_)" r="46.063"/><path d="m208.937 307.964c0 25.44 20.623 46.063 46.063 46.063s46.063-20.623 46.063-46.063c0-5.51-.971-10.792-2.745-15.689h-86.637c-1.774 4.897-2.744 10.179-2.744 15.689z" fill="url(#SVGID_00000062185660493243650050000004460143863036974728_)"/><path d="m222.428 340.535c17.989 17.989 47.154 17.989 65.143 0s17.989-47.154 0-65.143c-3.896-3.896-8.317-6.945-13.035-9.153l-61.262 61.262c2.21 4.717 5.258 9.138 9.154 13.034z" fill="url(#SVGID_00000056423116039058014140000007780858054222205343_)"/></g><path d="m288.936 181.136c0 3.962 3.212 7.173 7.173 7.173h29.228l11.558-14.346h-40.786c-3.962 0-7.173 3.212-7.173 7.173z" fill="url(#SVGID_00000183941850592147401140000013687800695052087168_)"/></g></g></svg>