<svg id="Capa_1" enable-background="new 0 0 510 510" height="512" viewBox="0 0 510 510" width="512" xmlns="http://www.w3.org/2000/svg" xmlns:xlink="http://www.w3.org/1999/xlink"><linearGradient id="lg1"><stop offset="0" stop-color="#f9f5f3"/><stop offset="1" stop-color="#efe2dd"/></linearGradient><linearGradient id="SVGID_1_" gradientUnits="userSpaceOnUse" x1="251.867" x2="297.528" xlink:href="#lg1" y1="354.706" y2="354.706"/><linearGradient id="lg2"><stop offset="0" stop-color="#9e9797" stop-opacity="0"/><stop offset=".3562" stop-color="#9b9494" stop-opacity=".356"/><stop offset=".6285" stop-color="#928b8b" stop-opacity=".629"/><stop offset=".872" stop-color="#827a7a" stop-opacity=".872"/><stop offset="1" stop-color="#766e6e"/></linearGradient><linearGradient id="SVGID_00000092439512832099125850000002594208693590076855_" gradientUnits="userSpaceOnUse" x1="225" x2="225" xlink:href="#lg2" y1="365" y2="318.496"/><linearGradient id="SVGID_00000113354446917666294370000016889653907838083725_" gradientUnits="userSpaceOnUse" x1="225" x2="225" xlink:href="#lg2" y1="350.882" y2="395.727"/><linearGradient id="SVGID_00000155864671346412246020000016685588596333948858_" gradientUnits="userSpaceOnUse" x1="141.14" x2="290.821" xlink:href="#lg1" y1="-13.153" y2="307.192"/><linearGradient id="SVGID_00000002365103111725117180000009721853716349168775_" gradientUnits="userSpaceOnUse" x1="403.235" x2="452.647" xlink:href="#lg2" y1="166.324" y2="166.324"/><linearGradient id="lg3"><stop offset="0" stop-color="#596c76"/><stop offset=".2842" stop-color="#4a5960"/><stop offset=".8747" stop-color="#232627"/><stop offset="1" stop-color="#1a1a1a"/></linearGradient><linearGradient id="SVGID_00000108306234003796080210000012973234570519588499_" gradientUnits="userSpaceOnUse" x1="161.367" x2="278.45" xlink:href="#lg3" y1="-30.86" y2="302.377"/><linearGradient id="lg4"><stop offset="0" stop-color="#1a1a1a" stop-opacity="0"/><stop offset=".4256" stop-color="#121212" stop-opacity=".426"/><stop offset="1"/></linearGradient><linearGradient id="SVGID_00000181059904011391650410000012717590595145016510_" gradientUnits="userSpaceOnUse" x1="399.706" x2="445.588" xlink:href="#lg4" y1="139.282" y2="139.282"/><linearGradient id="SVGID_00000183236408520941561350000002600859695575826587_" gradientUnits="userSpaceOnUse" x1="225" x2="225" xlink:href="#lg2" y1="310.792" y2="338.064"/><linearGradient id="lg5"><stop offset="0" stop-color="#a6e7f0"/><stop offset=".1713" stop-color="#90e2ed"/><stop offset=".5295" stop-color="#56d7e7"/><stop offset="1" stop-color="#02c7dd"/></linearGradient><linearGradient id="SVGID_00000034774062184771332710000002643896980081006772_" gradientUnits="userSpaceOnUse" x1="172.31" x2="272.771" xlink:href="#lg5" y1="-10.683" y2="275.246"/><linearGradient id="lg6"><stop offset="0" stop-color="#0199b1" stop-opacity="0"/><stop offset="1" stop-color="#0199b1"/></linearGradient><linearGradient id="SVGID_00000004529402721129295390000013421351227149077141_" gradientUnits="userSpaceOnUse" x1="376.765" x2="431.499" xlink:href="#lg6" y1="139.282" y2="139.282"/><linearGradient id="SVGID_00000044161745151334940980000001711972448138433720_" gradientUnits="userSpaceOnUse" x1="225" x2="225" xlink:href="#lg1" y1="396.511" y2="424.571"/><linearGradient id="SVGID_00000042735513600431090280000017634104035902003890_" gradientUnits="userSpaceOnUse" x1="225" x2="225" y1="396.511" y2="424.571"><stop offset="0" stop-color="#e1d3ce" stop-opacity="0"/><stop offset=".3157" stop-color="#d0c4c0" stop-opacity=".316"/><stop offset=".9401" stop-color="#a39c9b" stop-opacity=".94"/><stop offset="1" stop-color="#9e9797"/></linearGradient><linearGradient id="SVGID_00000118369030027028426400000012224748642468267671_" gradientUnits="userSpaceOnUse" x1="236" x2="287" xlink:href="#lg2" y1="349.5" y2="349.5"/><linearGradient id="SVGID_00000007413181615642241430000007415226800252959876_" gradientUnits="userSpaceOnUse" x1="241.048" x2="372.216" xlink:href="#lg6" y1="-40.607" y2="217.357"/><linearGradient id="SVGID_00000010303787446261107680000010938118591447985565_" gradientUnits="userSpaceOnUse" x1="221.093" x2="338.917" xlink:href="#lg6" y1="-7.345" y2="224.374"/><linearGradient id="SVGID_00000181076006239856291700000006681528118258493869_" gradientUnits="userSpaceOnUse" x1="322.164" x2="439.988" xlink:href="#lg6" y1="-7.345" y2="224.374"/><linearGradient id="SVGID_00000137815460458466153280000005995547848016459931_" gradientUnits="userSpaceOnUse" x1="202.41" x2="379.058" xlink:href="#lg6" y1="-45.872" y2="301.536"/><linearGradient id="SVGID_00000024700124743268915980000014100234508363001251_" gradientUnits="userSpaceOnUse" x1="232.588" x2="391.411" xlink:href="#lg6" y1="-79.365" y2="232.988"/><linearGradient id="SVGID_00000037666758836565907460000003539644551419626925_" gradientUnits="userSpaceOnUse" x1="20.906" x2="122.727" xlink:href="#lg6" y1="-122.377" y2="188.444"/><linearGradient id="SVGID_00000098187440966728369890000003942363415880446373_" gradientUnits="userSpaceOnUse" x1="93.188" x2="161.888" xlink:href="#lg6" y1="-67.11" y2="142.606"/><linearGradient id="SVGID_00000016049582601412055140000005837109723792322715_" gradientUnits="userSpaceOnUse" x1="23.427" x2="92.127" xlink:href="#lg6" y1="-41.192" y2="168.523"/><linearGradient id="SVGID_00000059988933950748564020000014853878784620203157_" gradientUnits="userSpaceOnUse" x1="88.866" x2="181.023" xlink:href="#lg5" y1="111.817" y2="203.973"/><linearGradient id="SVGID_00000148637564323675225530000007754682191294800794_" gradientTransform="matrix(0 -1 1 0 -1582.589 -2007.412)" gradientUnits="userSpaceOnUse" x1="-2172.485" x2="-2172.485" xlink:href="#lg6" y1="1804.173" y2="1830.285"/><linearGradient id="lg7"><stop offset="0" stop-color="#fef48b"/><stop offset="1" stop-color="#ffbf51"/></linearGradient><linearGradient id="SVGID_00000175312330950233613630000003424249270182009758_" gradientUnits="userSpaceOnUse" x1="163.411" x2="191.359" xlink:href="#lg7" y1="124.589" y2="152.537"/><linearGradient id="lg8"><stop offset="0" stop-color="#fe9738" stop-opacity="0"/><stop offset="1" stop-color="#fe9738"/></linearGradient><linearGradient id="SVGID_00000059305787552539904650000012053336113639835784_" gradientUnits="userSpaceOnUse" x1="175.29" x2="175.29" xlink:href="#lg8" y1="136.857" y2="173.023"/><linearGradient id="SVGID_00000150075635666744118730000004063110931952585109_" gradientTransform="matrix(.707 -.707 .707 .707 121.103 -1107.454)" gradientUnits="userSpaceOnUse" x1="-841.27" x2="-841.27" xlink:href="#lg8" y1="918.291" y2="956.359"/><linearGradient id="lg9"><stop offset="0" stop-color="#c9f6b0"/><stop offset="1" stop-color="#0bb494"/></linearGradient><linearGradient id="SVGID_00000049923094394352715450000008850927131936349876_" gradientUnits="userSpaceOnUse" x1="61.992" x2="132.587" xlink:href="#lg9" y1="170.453" y2="241.048"/><linearGradient id="SVGID_00000162334860351873855660000002046750411152598946_" gradientUnits="userSpaceOnUse" x1="179.136" x2="216.09" xlink:href="#lg9" y1="197.5" y2="234.453"/><linearGradient id="lg10"><stop offset="0" stop-color="#016a74" stop-opacity="0"/><stop offset="1" stop-color="#016a74"/></linearGradient><linearGradient id="SVGID_00000072267466003379418550000004617281090103128712_" gradientUnits="userSpaceOnUse" x1="142.123" x2="142.123" xlink:href="#lg10" y1="211.368" y2="246.814"/><linearGradient id="SVGID_00000094580646339011926310000008933455291210568888_" gradientUnits="userSpaceOnUse" x1="273.481" x2="285.279" xlink:href="#lg3" y1="238.046" y2="238.046"/><linearGradient id="SVGID_00000152977288733655797430000017353349354552697787_" gradientUnits="userSpaceOnUse" x1="495.26" x2="506.623" xlink:href="#lg3" y1="253.63" y2="253.63"/><linearGradient id="SVGID_00000049913783836907476780000005880082256432831387_" gradientUnits="userSpaceOnUse" x1="276.811" x2="525.237" xlink:href="#lg3" y1="226.741" y2="427.629"/><linearGradient id="SVGID_00000127731249798745835360000012664985430407344818_" gradientUnits="userSpaceOnUse" x1="392.138" x2="392.138" xlink:href="#lg4" y1="501.458" y2="508.334"/><linearGradient id="SVGID_00000013168228788540423390000017403981018001270147_" gradientUnits="userSpaceOnUse" x1="475.707" x2="512.186" xlink:href="#lg4" y1="320" y2="320"/><linearGradient id="SVGID_00000030473517272003047950000010886306187696669341_" gradientUnits="userSpaceOnUse" x1="392.138" x2="392.138" xlink:href="#lg4" y1="127.857" y2="189.683"/><linearGradient id="SVGID_00000006668848504940475310000005647119349815467933_" gradientUnits="userSpaceOnUse" x1="271.558" x2="478.039" xlink:href="#lg7" y1="250.521" y2="369.497"/><linearGradient id="SVGID_00000132784838245323619270000004774346552920525999_" gradientUnits="userSpaceOnUse" x1="451.6" x2="489.444" xlink:href="#lg8" y1="320" y2="320"/><linearGradient id="SVGID_00000062173665934187799240000013735231291012533132_" gradientUnits="userSpaceOnUse" x1="293.081" x2="394.902" xlink:href="#lg8" y1="45.061" y2="355.882"/><linearGradient id="SVGID_00000118374881842247567040000007296709682291859897_" gradientUnits="userSpaceOnUse" x1="365.363" x2="434.063" xlink:href="#lg8" y1="100.327" y2="310.043"/><linearGradient id="SVGID_00000174591048412866364100000018164233055024713114_" gradientUnits="userSpaceOnUse" x1="295.602" x2="364.302" xlink:href="#lg8" y1="126.245" y2="335.96"/><linearGradient id="SVGID_00000050658972721417543140000010646514953352595358_" gradientUnits="userSpaceOnUse" x1="290.223" x2="421.391" xlink:href="#lg8" y1="247.01" y2="504.975"/><linearGradient id="SVGID_00000129194171755942090500000004660037501009418401_" gradientUnits="userSpaceOnUse" x1="270.269" x2="388.092" xlink:href="#lg8" y1="280.272" y2="511.992"/><linearGradient id="SVGID_00000029750223923583427160000018101501521517070466_" gradientUnits="userSpaceOnUse" x1="371.339" x2="489.163" xlink:href="#lg8" y1="280.272" y2="511.992"/><linearGradient id="SVGID_00000052808930946933515140000014706163879017391533_" gradientUnits="userSpaceOnUse" x1="251.585" x2="428.234" xlink:href="#lg8" y1="241.745" y2="589.154"/><linearGradient id="SVGID_00000069371134862579615650000014387062979169655947_" gradientUnits="userSpaceOnUse" x1="281.763" x2="440.587" xlink:href="#lg8" y1="208.253" y2="520.606"/><linearGradient id="SVGID_00000023977248743164726270000006839242737883379639_" gradientUnits="userSpaceOnUse" x1="355.503" x2="418.897" xlink:href="#lg5" y1="276.738" y2="340.131"/><linearGradient id="SVGID_00000026122583456564521330000014920193655999969453_" gradientTransform="matrix(0 -1 1 0 -1582.589 -2007.412)" gradientUnits="userSpaceOnUse" x1="-2320.784" x2="-2320.784" xlink:href="#lg6" y1="2029.387" y2="2047.349"/><linearGradient id="SVGID_00000010303256282774858280000001525815445280503732_" gradientUnits="userSpaceOnUse" x1="406.781" x2="426.007" xlink:href="#lg7" y1="285.523" y2="304.749"/><linearGradient id="SVGID_00000075141702918795452730000018067436639781409418_" gradientUnits="userSpaceOnUse" x1="414.953" x2="414.953" xlink:href="#lg8" y1="293.963" y2="318.841"/><linearGradient id="SVGID_00000070104989729519267850000013239869135209064889_" gradientTransform="matrix(.707 -.707 .707 .707 121.103 -1107.454)" gradientUnits="userSpaceOnUse" x1="-782.979" x2="-782.979" xlink:href="#lg8" y1="1198.813" y2="1225"/><linearGradient id="SVGID_00000063600910502627316780000018098538598061777587_" gradientUnits="userSpaceOnUse" x1="337.017" x2="385.578" xlink:href="#lg9" y1="317.073" y2="365.634"/><linearGradient id="SVGID_00000110451584156663673410000005571680748083984565_" gradientUnits="userSpaceOnUse" x1="417.599" x2="443.018" xlink:href="#lg9" y1="335.678" y2="361.098"/><linearGradient id="SVGID_00000103264323766927357540000017937406325732873095_" gradientUnits="userSpaceOnUse" x1="392.138" x2="392.138" xlink:href="#lg10" y1="345.218" y2="369.6"/><linearGradient id="SVGID_00000064334404180979181590000012075301640604097461_" gradientUnits="userSpaceOnUse" x1="114.166" x2="251.666" y1="209.176" y2="423.676"><stop offset="0" stop-color="#d9b1ee"/><stop offset=".1228" stop-color="#dba3e3"/><stop offset=".3507" stop-color="#e381c8"/><stop offset=".6587" stop-color="#ef499b"/><stop offset="1" stop-color="#fe0364"/></linearGradient><g><g><path d="m156.176 312.353h137.647v84.706h-137.647z" fill="url(#SVGID_1_)"/><path d="m156.176 312.353h137.647v84.706h-137.647z" fill="url(#SVGID_00000092439512832099125850000002594208693590076855_)"/><path d="m156.176 312.353h137.647v84.706h-137.647z" fill="url(#SVGID_00000113354446917666294370000016889653907838083725_)"/><g><path d="m423.529 332.647h-397.058c-14.62 0-26.471-11.851-26.471-26.471v-279.705c0-14.62 11.851-26.471 26.471-26.471h397.059c14.619 0 26.47 11.851 26.47 26.471v279.706c0 14.619-11.851 26.47-26.471 26.47z" fill="url(#SVGID_00000155864671346412246020000016685588596333948858_)"/><path d="m423.529 0h-161.47v332.647h161.471c14.619 0 26.471-11.851 26.471-26.471v-279.705c-.001-14.62-11.852-26.471-26.472-26.471z" fill="url(#SVGID_00000002365103111725117180000009721853716349168775_)"/><path d="m423.529 0h-397.058c-14.62 0-26.471 11.851-26.471 26.471v252.093h450v-252.093c0-14.62-11.851-26.471-26.471-26.471z" fill="url(#SVGID_00000108306234003796080210000012973234570519588499_)"/><path d="m423.529 0h-161.47v278.564h187.941v-252.093c0-14.62-11.851-26.471-26.471-26.471z" fill="url(#SVGID_00000181059904011391650410000012717590595145016510_)"/><path d="m0 292.059v14.118c0 14.619 11.851 26.471 26.471 26.471h397.059c14.619 0 26.471-11.851 26.471-26.471v-14.118z" fill="url(#SVGID_00000183236408520941561350000002600859695575826587_)"/></g><g><path d="m411.176 21.618h-372.352c-8.772 0-15.882 7.111-15.882 15.882v203.564c0 8.772 7.111 15.882 15.882 15.882h372.353c8.772 0 15.882-7.111 15.882-15.882v-203.564c0-8.772-7.111-15.882-15.883-15.882z" fill="url(#SVGID_00000034774062184771332710000002643896980081006772_)"/><path d="m262.059 256.946h149.118c8.772 0 15.882-7.111 15.882-15.882v-203.564c0-8.772-7.111-15.882-15.882-15.882h-149.118z" fill="url(#SVGID_00000004529402721129295390000013421351227149077141_)"/></g><g><path d="m320.196 420.436h-190.392c-5.427 0-9.827-4.4-9.827-9.827 0-16.821 13.636-30.458 30.458-30.458h149.131c16.821 0 30.458 13.636 30.458 30.458-.001 5.427-4.401 9.827-9.828 9.827z" fill="url(#SVGID_00000044161745151334940980000001711972448138433720_)"/><path d="m320.196 420.436h-190.392c-5.427 0-9.827-4.4-9.827-9.827 0-16.821 13.636-30.458 30.458-30.458h149.131c16.821 0 30.458 13.636 30.458 30.458-.001 5.427-4.401 9.827-9.828 9.827z" fill="url(#SVGID_00000042735513600431090280000017634104035902003890_)"/></g></g><path d="m156.176 278.564h137.647v141.872h-137.647z" fill="url(#SVGID_00000118369030027028426400000012224748642468267671_)"/><g><g><path d="m347.712 91.383h-70.474c-4.686 0-8.484 3.798-8.484 8.484s3.798 8.484 8.484 8.484h70.474c4.685 0 8.484-3.798 8.484-8.484s-3.799-8.484-8.484-8.484z" fill="url(#SVGID_00000007413181615642241430000007415226800252959876_)"/><path d="m313.664 130.548c0-4.685-3.798-8.484-8.484-8.484h-27.942c-4.686 0-8.484 3.798-8.484 8.484s3.798 8.484 8.484 8.484h27.942c4.685 0 8.484-3.798 8.484-8.484z" fill="url(#SVGID_00000010303787446261107680000010938118591447985565_)"/><path d="m414.734 130.548c0-4.685-3.798-8.484-8.484-8.484h-27.942c-4.686 0-8.484 3.798-8.484 8.484s3.798 8.484 8.484 8.484h27.942c4.686 0 8.484-3.798 8.484-8.484z" fill="url(#SVGID_00000181076006239856291700000006681528118258493869_)"/><path d="m346.309 160.866c0-4.685-3.798-8.484-8.484-8.484h-60.587c-4.686 0-8.484 3.798-8.484 8.484s3.798 8.484 8.484 8.484h60.587c4.685.001 8.484-3.798 8.484-8.484z" fill="url(#SVGID_00000137815460458466153280000005995547848016459931_)"/><path d="m347.558 139.032c4.686 0 8.484-3.798 8.484-8.484s-3.798-8.484-8.484-8.484h-16.47c-4.685 0-8.484 3.798-8.484 8.484 0 4.685 3.798 8.484 8.484 8.484z" fill="url(#SVGID_00000024700124743268915980000014100234508363001251_)"/></g><g><g><path d="m99.647 39.799h-46.167c-4.267 0-7.726 3.459-7.726 7.726s3.459 7.726 7.726 7.726h46.167c4.267 0 7.726-3.459 7.726-7.726s-3.459-7.726-7.726-7.726z" fill="url(#SVGID_00000037666758836565907460000003539644551419626925_)"/><path d="m138.24 39.799h-14.999c-4.267 0-7.726 3.459-7.726 7.726s3.459 7.726 7.726 7.726h14.999c4.267 0 7.726-3.459 7.726-7.726.001-4.267-3.458-7.726-7.726-7.726z" fill="url(#SVGID_00000098187440966728369890000003942363415880446373_)"/><path d="m68.479 65.717h-14.999c-4.267 0-7.726 3.459-7.726 7.726s3.459 7.726 7.726 7.726h14.999c4.267 0 7.726-3.459 7.726-7.726s-3.459-7.726-7.726-7.726z" fill="url(#SVGID_00000016049582601412055140000005837109723792322715_)"/></g></g><g><g><path d="m231.277 238.765h-178.307c-9.778 0-17.704-7.926-17.704-17.704v-111.974c0-9.778 7.926-17.704 17.704-17.704h178.307c9.778 0 17.704 7.926 17.704 17.704v111.975c0 9.777-7.926 17.703-17.704 17.703z" fill="url(#SVGID_00000059988933950748564020000014853878784620203157_)"/><g><path d="m175.29 238.765h55.987c9.778 0 17.704-7.926 17.704-17.704v-111.974c0-9.778-7.926-17.704-17.704-17.704h-55.987z" fill="url(#SVGID_00000148637564323675225530000007754682191294800794_)"/></g></g><path d="m59.353 154.411h39.386c6.605 0 11.959-5.354 11.959-11.958 0-6.605-5.354-11.959-11.959-11.959h-39.386c-6.605 0-11.959 5.354-11.959 11.959.001 6.604 5.355 11.958 11.959 11.958z" fill="#fff"/><g><circle cx="175.29" cy="136.468" fill="url(#SVGID_00000175312330950233613630000003424249270182009758_)" r="30.744"/><path d="m144.546 136.468c0 16.979 13.764 30.744 30.744 30.744 16.979 0 30.744-13.765 30.744-30.744 0-3.677-.648-7.203-1.832-10.471h-57.824c-1.184 3.268-1.832 6.794-1.832 10.471z" fill="url(#SVGID_00000059305787552539904650000012053336113639835784_)"/><path d="m153.55 158.207c12.006 12.006 31.472 12.006 43.478 0s12.006-31.472 0-43.478c-2.6-2.6-5.551-4.635-8.7-6.109l-40.888 40.888c1.475 3.148 3.51 6.099 6.11 8.699z" fill="url(#SVGID_00000150075635666744118730000004063110931952585109_)"/></g><path d="m192.442 124.276h26.975c6.605 0 11.959-5.354 11.959-11.958 0-6.605-5.354-11.959-11.959-11.959h-26.975c-6.605 0-11.959 5.354-11.959 11.959.001 6.604 5.355 11.958 11.959 11.958z" fill="#fff"/><path d="m52.97 238.765h133.16l-53.802-81.518c-15.037-22.783-48.466-22.783-63.503 0l-33.56 50.848v12.966c.001 9.778 7.927 17.704 17.705 17.704z" fill="url(#SVGID_00000049923094394352715450000008850927131936349876_)"/><path d="m231.277 238.765c9.778 0 17.704-7.926 17.704-17.704v-19.89l-5.094-7.718c-15.037-22.783-48.466-22.783-63.503 0l-29.906 45.312z" fill="url(#SVGID_00000162334860351873855660000002046750411152598946_)"/><path d="m35.266 165.074v55.987c0 9.778 7.926 17.704 17.704 17.704h178.307c9.778 0 17.704-7.926 17.704-17.704v-55.987z" fill="url(#SVGID_00000072267466003379418550000004617281090103128712_)"/></g></g><g><g><path d="m274.276 214.963v46.167c0 4.267 3.459 7.726 7.726 7.726s7.726-3.459 7.726-7.726v-46.167c0-4.267-3.459-7.726-7.726-7.726s-7.726 3.459-7.726 7.726z" fill="url(#SVGID_00000094580646339011926310000008933455291210568888_)"/><path d="m494.548 246.131v14.999c0 4.267 3.459 7.726 7.726 7.726s7.726-3.459 7.726-7.726v-14.999c0-4.267-3.459-7.726-7.726-7.726s-7.726 3.459-7.726 7.726z" fill="url(#SVGID_00000152977288733655797430000017353349354552697787_)"/></g><g><path d="m478.117 510h-171.958c-13.314 0-24.106-10.793-24.106-24.106v-331.788c0-13.314 10.793-24.106 24.106-24.106h171.958c13.314 0 24.106 10.793 24.106 24.106v331.787c.001 13.314-10.792 24.107-24.106 24.107z" fill="url(#SVGID_00000049913783836907476780000005880082256432831387_)"/><path d="m282.052 488.371v-2.478c0 13.314 10.793 24.106 24.106 24.106h171.958c13.314 0 24.106-10.793 24.106-24.106v2.478z" fill="url(#SVGID_00000127731249798745835360000012664985430407344818_)"/><path d="m478.117 130h-85.979v380h85.979c13.314 0 24.106-10.793 24.106-24.106v-331.788c.001-13.313-10.792-24.106-24.106-24.106z" fill="url(#SVGID_00000013168228788540423390000017403981018001270147_)"/><path d="m417.47 150.089h-50.664c-3.073.001-5.566 2.493-5.566 5.566 0 3.075 2.492 5.566 5.567 5.567h50.664c1.537 0 2.928-.623 3.936-1.631 1.007-1.007 1.63-2.399 1.631-3.936-.002-3.074-2.493-5.566-5.568-5.566z" fill="url(#SVGID_00000030473517272003047950000010886306187696669341_)"/></g><g><path d="m482.135 160.936v318.127c0 5.991-4.857 10.848-10.848 10.848h-158.298c-5.991 0-10.848-4.857-10.848-10.848v-318.127c0-5.991 4.857-10.848 10.848-10.848h15.733c5.547 0 10.044 4.497 10.044 10.044 0 5.547 4.497 10.044 10.044 10.044h86.654c5.547 0 10.044-4.497 10.044-10.044 0-5.547 4.497-10.044 10.044-10.044h15.733c5.993.001 10.85 4.857 10.85 10.848z" fill="url(#SVGID_00000006668848504940475310000005647119349815467933_)"/><path d="m471.287 150.089h-15.733c-5.547 0-10.044 4.497-10.044 10.044s-4.497 10.044-10.044 10.044h-43.327v319.734h79.149c5.991 0 10.848-4.857 10.848-10.848v-318.127c-.001-5.991-4.858-10.847-10.849-10.847z" fill="url(#SVGID_00000132784838245323619270000004774346552920525999_)"/></g><g><g><path d="m371.822 207.237h-46.167c-4.267 0-7.726 3.459-7.726 7.726s3.459 7.726 7.726 7.726h46.167c4.267 0 7.726-3.459 7.726-7.726.001-4.267-3.459-7.726-7.726-7.726z" fill="url(#SVGID_00000062173665934187799240000013735231291012533132_)"/><path d="m410.416 207.237h-14.999c-4.267 0-7.726 3.459-7.726 7.726s3.459 7.726 7.726 7.726h14.999c4.267 0 7.726-3.459 7.726-7.726s-3.459-7.726-7.726-7.726z" fill="url(#SVGID_00000118374881842247567040000007296709682291859897_)"/><path d="m340.654 233.154h-14.999c-4.267 0-7.726 3.459-7.726 7.726s3.459 7.726 7.726 7.726h14.999c4.267 0 7.726-3.459 7.726-7.726s-3.459-7.726-7.726-7.726z" fill="url(#SVGID_00000174591048412866364100000018164233055024713114_)"/></g><g><path d="m396.887 379h-70.474c-4.686 0-8.484 3.798-8.484 8.484s3.798 8.484 8.484 8.484h70.474c4.685 0 8.484-3.798 8.484-8.484s-3.798-8.484-8.484-8.484z" fill="url(#SVGID_00000050658972721417543140000010646514953352595358_)"/><path d="m362.839 418.166c0-4.685-3.798-8.484-8.484-8.484h-27.942c-4.686 0-8.484 3.798-8.484 8.484s3.798 8.484 8.484 8.484h27.942c4.685 0 8.484-3.798 8.484-8.484z" fill="url(#SVGID_00000129194171755942090500000004660037501009418401_)"/><path d="m463.91 418.166c0-4.685-3.798-8.484-8.484-8.484h-27.942c-4.686 0-8.484 3.798-8.484 8.484s3.798 8.484 8.484 8.484h27.942c4.685 0 8.484-3.798 8.484-8.484z" fill="url(#SVGID_00000029750223923583427160000018101501521517070466_)"/><path d="m395.484 448.484c0-4.685-3.798-8.484-8.484-8.484h-60.587c-4.686 0-8.484 3.798-8.484 8.484s3.798 8.484 8.484 8.484h60.587c4.686 0 8.484-3.798 8.484-8.484z" fill="url(#SVGID_00000052808930946933515140000014706163879017391533_)"/><path d="m396.733 426.65c4.686 0 8.484-3.798 8.484-8.484s-3.798-8.484-8.484-8.484h-16.47c-4.685 0-8.484 3.798-8.484 8.484 0 4.685 3.798 8.484 8.484 8.484z" fill="url(#SVGID_00000069371134862579615650000014387062979169655947_)"/></g><g><g><path d="m453.466 364.064h-122.656c-6.726 0-12.178-5.452-12.178-12.178v-77.026c0-6.726 5.452-12.178 12.178-12.178h122.655c6.726 0 12.178 5.452 12.178 12.178v77.026c.001 6.725-5.451 12.178-12.177 12.178z" fill="url(#SVGID_00000023977248743164726270000006839242737883379639_)"/><g><path d="m414.953 364.064h38.513c6.726 0 12.178-5.452 12.178-12.178v-77.026c0-6.726-5.452-12.178-12.178-12.178h-38.513z" fill="url(#SVGID_00000026122583456564521330000014920193655999969453_)"/></g></g><path d="m335.202 306.037h27.093c4.543 0 8.226-3.683 8.226-8.226 0-4.544-3.683-8.226-8.226-8.226h-27.093c-4.543 0-8.226 3.683-8.226 8.226-.001 4.543 3.682 8.226 8.226 8.226z" fill="#fff"/><g><circle cx="414.953" cy="293.695" fill="url(#SVGID_00000010303256282774858280000001525815445280503732_)" r="21.148"/><path d="m393.804 293.695c0 11.68 9.468 21.148 21.148 21.148s21.148-9.468 21.148-21.148c0-2.53-.446-4.955-1.26-7.203h-39.776c-.814 2.248-1.26 4.673-1.26 7.203z" fill="url(#SVGID_00000075141702918795452730000018067436639781409418_)"/><path d="m399.999 308.649c8.259 8.259 21.649 8.259 29.908 0s8.259-21.649 0-29.908c-1.789-1.789-3.819-3.188-5.984-4.202l-28.126 28.126c1.013 2.165 2.413 4.195 4.202 5.984z" fill="url(#SVGID_00000070104989729519267850000013239869135209064889_)"/></g><path d="m426.752 285.308h18.556c4.543 0 8.226-3.683 8.226-8.226 0-4.544-3.683-8.226-8.226-8.226h-18.556c-4.543 0-8.226 3.683-8.226 8.226s3.682 8.226 8.226 8.226z" fill="#fff"/><path d="m330.81 364.064h91.599l-37.01-56.075c-10.344-15.672-33.339-15.672-43.683 0l-23.085 34.978v8.919c.001 6.725 5.453 12.178 12.179 12.178z" fill="url(#SVGID_00000063600910502627316780000018098538598061777587_)"/><path d="m453.466 364.064c6.726 0 12.178-5.452 12.178-12.178v-13.682l-3.504-5.309c-10.344-15.672-33.339-15.672-43.683 0l-20.572 31.17h55.581z" fill="url(#SVGID_00000110451584156663673410000005571680748083984565_)"/><path d="m318.632 313.372v38.513c0 6.726 5.452 12.178 12.178 12.178h122.655c6.726 0 12.178-5.452 12.178-12.178v-38.513z" fill="url(#SVGID_00000103264323766927357540000017937406325732873095_)"/></g></g></g><path d="m294.871 397.398c-4.25.13-7.73-3.28-7.73-7.49v-10.14c-18.76 23.99-48.26 39.19-81.2 38.29-52.56-1.45-95.27-44.2-96.67-96.76-.153-5.696.192-11.286.965-16.739l-9.366 9.019c-2.98 2.98-7.85 2.93-10.76-.16-2.82-2.99-2.52-7.76.38-10.67l21.99-21.99c2.93-2.93 7.68-2.92 10.6 0l22.21 22.22c2.99 2.98 2.93 7.85-.16 10.76-2.99 2.82-7.76 2.52-10.66-.38l-9.021-9.021c-.541 3.167-.914 6.389-1.088 9.661-2.6 48.66 36.26 89.1 84.38 89.1 29.03 0 54.68-14.73 69.9-37.1h-15.1c-4.11 0-7.69-3.17-7.81-7.27-.13-4.25 3.28-7.73 7.5-7.73h31.41c4.14 0 7.5 3.35 7.5 7.5v31.09c0 4.11-3.17 7.69-7.27 7.81z" fill="url(#SVGID_00000064334404180979181590000012075301640604097461_)"/></g></svg>