<svg height="512pt" viewBox="0 0 512 512" width="512pt" xmlns="http://www.w3.org/2000/svg"><path d="m512 256c0 141.386719-114.613281 256-256 256s-256-114.613281-256-256 114.613281-256 256-256 256 114.613281 256 256zm0 0" fill="#00ba65"/><path d="m512 256c0-3.234375-.078125-6.445312-.199219-9.648438-57.761719-57.75-126.546875-126.492187-126.546875-126.492187-31.695312-33.550781-76.578125-54.523437-126.269531-54.523437-95.808594 0-173.75 77.941406-173.75 173.75 0 40.726562 14.214844 79.914062 40.164063 111.089843l-7.457032 68.605469 88.390625 88.386719c16.070313 3.160156 32.671875 4.832031 49.667969 4.832031 141.386719 0 256-114.613281 256-256zm0 0" fill="#008b4a"/><path d="m345.816406 270.78125-18.742187-15.941406c-7.039063-5.992188-17.59375-5.140625-23.578125 1.902344l-14.917969 17.53125-69.785156-59.371094 14.925781-17.535156c5.980469-7.03125 5.128906-17.585938-1.902344-23.578126l-18.746094-15.941406c-7.03125-5.984375-17.589843-5.140625-23.574218 1.898438l-7.351563 8.648437c-17.257812 20.277344-14.808593 50.703125 5.476563 67.960938l84.78125 72.125c20.277344 17.257812 50.707031 14.808593 67.957031-5.476563l7.355469-8.640625c5.984375-7.042969 5.140625-17.597656-1.898438-23.582031zm0 0" fill="#fff"/><path d="m347.71875 294.367188-7.363281 8.628906c-17.242188 20.292968-47.679688 22.742187-67.953125 5.488281l-11.226563-9.554687v-47.96875l27.398438 23.3125 14.925781-17.53125c5.976562-7.039063 16.535156-7.894532 23.574219-1.894532l18.738281 15.933594c7.039062 5.988281 7.882812 16.535156 1.90625 23.585938zm0 0" fill="#fff5cb"/><path d="m258.984375 65.335938c-95.808594 0-173.75 77.941406-173.75 173.75 0 40.726562 14.214844 79.914062 40.164063 111.089843l-7.457032 68.605469 73.648438-19.515625c21.34375 9.003906 43.988281 13.5625 67.394531 13.5625 95.804687 0 173.75-77.941406 173.75-173.742187 0-95.808594-77.945313-173.75-173.75-173.75zm0 317.996093c-20.945313 0-41.144531-4.390625-60.039063-13.050781l-4.808593-2.203125-42.234375 11.191406 4.222656-38.84375-4.410156-4.902343c-23.851563-26.515626-36.988282-60.761719-36.988282-96.4375 0-79.542969 64.714844-144.257813 144.257813-144.257813s144.253906 64.714844 144.253906 144.257813c.003907 79.535156-64.710937 144.246093-144.253906 144.246093zm0 0" fill="#fff"/><path d="m261.175781 65.339844v29.503906c78.542969 1.167969 142.0625 65.433594 142.0625 144.242188 0 78.796874-63.519531 143.054687-142.0625 144.222656v29.503906c94.804688-1.179688 171.554688-78.648438 171.554688-173.726562 0-95.078126-76.753907-172.566407-171.554688-173.746094zm0 0" fill="#fff5cb"/></svg>